<?xml version="1.0" encoding="utf-8" standalone="no"?>
<!DOCTYPE svg PUBLIC "-//W3C//DTD SVG 1.1//EN"
  "http://www.w3.org/Graphics/SVG/1.1/DTD/svg11.dtd">
<!-- Created with matplotlib (http://matplotlib.org/) -->
<svg height="1440pt" version="1.1" viewBox="0 0 2880 1440" width="2880pt" xmlns="http://www.w3.org/2000/svg" xmlns:xlink="http://www.w3.org/1999/xlink">
 <defs>
  <style type="text/css">
*{stroke-linecap:butt;stroke-linejoin:round;}
  </style>
 </defs>
 <g id="figure_1">
  <g id="patch_1">
   <path d="M 0 1440 
L 2880 1440 
L 2880 0 
L 0 0 
z
" style="fill:#ffffff;"/>
  </g>
  <g id="axes_1">
   <g id="patch_2">
    <path d="M 360 1260 
L 2592 1260 
L 2592 172.8 
L 360 172.8 
z
" style="fill:#eaeaf2;"/>
   </g>
   <g id="matplotlib.axis_1">
    <g id="xtick_1">
     <g id="line2d_1">
      <path clip-path="url(#ped79574fce)" d="M 360 1260 
L 360 172.8 
" style="fill:none;stroke:#ffffff;stroke-linecap:round;"/>
     </g>
     <g id="line2d_2"/>
     <g id="text_1">
      <!-- low range -->
      <defs>
       <path d="M 6.390625 0 
L 6.390625 71.578125 
L 15.1875 71.578125 
L 15.1875 0 
z
" id="ArialMT-6c"/>
       <path d="M 3.328125 25.921875 
Q 3.328125 40.328125 11.328125 47.265625 
Q 18.015625 53.03125 27.640625 53.03125 
Q 38.328125 53.03125 45.109375 46.015625 
Q 51.90625 39.015625 51.90625 26.65625 
Q 51.90625 16.65625 48.90625 10.90625 
Q 45.90625 5.171875 40.15625 2 
Q 34.421875 -1.171875 27.640625 -1.171875 
Q 16.75 -1.171875 10.03125 5.8125 
Q 3.328125 12.796875 3.328125 25.921875 
z
M 12.359375 25.921875 
Q 12.359375 15.96875 16.703125 11.015625 
Q 21.046875 6.0625 27.640625 6.0625 
Q 34.1875 6.0625 38.53125 11.03125 
Q 42.875 16.015625 42.875 26.21875 
Q 42.875 35.84375 38.5 40.796875 
Q 34.125 45.75 27.640625 45.75 
Q 21.046875 45.75 16.703125 40.8125 
Q 12.359375 35.890625 12.359375 25.921875 
z
" id="ArialMT-6f"/>
       <path d="M 16.15625 0 
L 0.296875 51.859375 
L 9.375 51.859375 
L 17.625 21.921875 
L 20.703125 10.796875 
Q 20.90625 11.625 23.390625 21.484375 
L 31.640625 51.859375 
L 40.671875 51.859375 
L 48.4375 21.78125 
L 51.03125 11.859375 
L 54 21.875 
L 62.890625 51.859375 
L 71.4375 51.859375 
L 55.21875 0 
L 46.09375 0 
L 37.84375 31.0625 
L 35.84375 39.890625 
L 25.34375 0 
z
" id="ArialMT-77"/>
       <path id="ArialMT-20"/>
       <path d="M 6.5 0 
L 6.5 51.859375 
L 14.40625 51.859375 
L 14.40625 44 
Q 17.4375 49.515625 20 51.265625 
Q 22.5625 53.03125 25.640625 53.03125 
Q 30.078125 53.03125 34.671875 50.203125 
L 31.640625 42.046875 
Q 28.421875 43.953125 25.203125 43.953125 
Q 22.3125 43.953125 20.015625 42.21875 
Q 17.71875 40.484375 16.75 37.40625 
Q 15.28125 32.71875 15.28125 27.15625 
L 15.28125 0 
z
" id="ArialMT-72"/>
       <path d="M 40.4375 6.390625 
Q 35.546875 2.25 31.03125 0.53125 
Q 26.515625 -1.171875 21.34375 -1.171875 
Q 12.796875 -1.171875 8.203125 3 
Q 3.609375 7.171875 3.609375 13.671875 
Q 3.609375 17.484375 5.34375 20.625 
Q 7.078125 23.78125 9.890625 25.6875 
Q 12.703125 27.59375 16.21875 28.5625 
Q 18.796875 29.25 24.03125 29.890625 
Q 34.671875 31.15625 39.703125 32.90625 
Q 39.75 34.71875 39.75 35.203125 
Q 39.75 40.578125 37.25 42.78125 
Q 33.890625 45.75 27.25 45.75 
Q 21.046875 45.75 18.09375 43.578125 
Q 15.140625 41.40625 13.71875 35.890625 
L 5.125 37.0625 
Q 6.296875 42.578125 8.984375 45.96875 
Q 11.671875 49.359375 16.75 51.1875 
Q 21.828125 53.03125 28.515625 53.03125 
Q 35.15625 53.03125 39.296875 51.46875 
Q 43.453125 49.90625 45.40625 47.53125 
Q 47.359375 45.171875 48.140625 41.546875 
Q 48.578125 39.3125 48.578125 33.453125 
L 48.578125 21.734375 
Q 48.578125 9.46875 49.140625 6.21875 
Q 49.703125 2.984375 51.375 0 
L 42.1875 0 
Q 40.828125 2.734375 40.4375 6.390625 
z
M 39.703125 26.03125 
Q 34.90625 24.078125 25.34375 22.703125 
Q 19.921875 21.921875 17.671875 20.9375 
Q 15.4375 19.96875 14.203125 18.09375 
Q 12.984375 16.21875 12.984375 13.921875 
Q 12.984375 10.40625 15.640625 8.0625 
Q 18.3125 5.71875 23.4375 5.71875 
Q 28.515625 5.71875 32.46875 7.9375 
Q 36.421875 10.15625 38.28125 14.015625 
Q 39.703125 17 39.703125 22.796875 
z
" id="ArialMT-61"/>
       <path d="M 6.59375 0 
L 6.59375 51.859375 
L 14.5 51.859375 
L 14.5 44.484375 
Q 20.21875 53.03125 31 53.03125 
Q 35.6875 53.03125 39.625 51.34375 
Q 43.5625 49.65625 45.515625 46.921875 
Q 47.46875 44.1875 48.25 40.4375 
Q 48.734375 37.984375 48.734375 31.890625 
L 48.734375 0 
L 39.9375 0 
L 39.9375 31.546875 
Q 39.9375 36.921875 38.90625 39.578125 
Q 37.890625 42.234375 35.28125 43.8125 
Q 32.671875 45.40625 29.15625 45.40625 
Q 23.53125 45.40625 19.453125 41.84375 
Q 15.375 38.28125 15.375 28.328125 
L 15.375 0 
z
" id="ArialMT-6e"/>
       <path d="M 4.984375 -4.296875 
L 13.53125 -5.5625 
Q 14.0625 -9.515625 16.5 -11.328125 
Q 19.78125 -13.765625 25.4375 -13.765625 
Q 31.546875 -13.765625 34.859375 -11.328125 
Q 38.1875 -8.890625 39.359375 -4.5 
Q 40.046875 -1.8125 39.984375 6.78125 
Q 34.234375 0 25.640625 0 
Q 14.9375 0 9.078125 7.71875 
Q 3.21875 15.4375 3.21875 26.21875 
Q 3.21875 33.640625 5.90625 39.90625 
Q 8.59375 46.1875 13.6875 49.609375 
Q 18.796875 53.03125 25.6875 53.03125 
Q 34.859375 53.03125 40.828125 45.609375 
L 40.828125 51.859375 
L 48.921875 51.859375 
L 48.921875 7.03125 
Q 48.921875 -5.078125 46.453125 -10.125 
Q 44 -15.1875 38.640625 -18.109375 
Q 33.296875 -21.046875 25.484375 -21.046875 
Q 16.21875 -21.046875 10.5 -16.875 
Q 4.78125 -12.703125 4.984375 -4.296875 
z
M 12.25 26.859375 
Q 12.25 16.65625 16.296875 11.96875 
Q 20.359375 7.28125 26.46875 7.28125 
Q 32.515625 7.28125 36.609375 11.9375 
Q 40.71875 16.609375 40.71875 26.5625 
Q 40.71875 36.078125 36.5 40.90625 
Q 32.28125 45.75 26.3125 45.75 
Q 20.453125 45.75 16.34375 40.984375 
Q 12.25 36.234375 12.25 26.859375 
z
" id="ArialMT-67"/>
       <path d="M 42.09375 16.703125 
L 51.171875 15.578125 
Q 49.03125 7.625 43.21875 3.21875 
Q 37.40625 -1.171875 28.375 -1.171875 
Q 17 -1.171875 10.328125 5.828125 
Q 3.65625 12.84375 3.65625 25.484375 
Q 3.65625 38.578125 10.390625 45.796875 
Q 17.140625 53.03125 27.875 53.03125 
Q 38.28125 53.03125 44.875 45.953125 
Q 51.46875 38.875 51.46875 26.03125 
Q 51.46875 25.25 51.421875 23.6875 
L 12.75 23.6875 
Q 13.234375 15.140625 17.578125 10.59375 
Q 21.921875 6.0625 28.421875 6.0625 
Q 33.25 6.0625 36.671875 8.59375 
Q 40.09375 11.140625 42.09375 16.703125 
z
M 13.234375 30.90625 
L 42.1875 30.90625 
Q 41.609375 37.453125 38.875 40.71875 
Q 34.671875 45.796875 27.984375 45.796875 
Q 21.921875 45.796875 17.796875 41.75 
Q 13.671875 37.703125 13.234375 30.90625 
z
" id="ArialMT-65"/>
      </defs>
      <g style="fill:#262626;" transform="translate(316.64375 1281.315625)scale(0.2 -0.2)">
       <use xlink:href="#ArialMT-6c"/>
       <use x="22.216797" xlink:href="#ArialMT-6f"/>
       <use x="77.832031" xlink:href="#ArialMT-77"/>
       <use x="150.048828" xlink:href="#ArialMT-20"/>
       <use x="177.832031" xlink:href="#ArialMT-72"/>
       <use x="211.132812" xlink:href="#ArialMT-61"/>
       <use x="266.748047" xlink:href="#ArialMT-6e"/>
       <use x="322.363281" xlink:href="#ArialMT-67"/>
       <use x="377.978516" xlink:href="#ArialMT-65"/>
      </g>
     </g>
    </g>
    <g id="xtick_2">
     <g id="line2d_3">
      <path clip-path="url(#ped79574fce)" d="M 732 1260 
L 732 172.8 
" style="fill:none;stroke:#ffffff;stroke-linecap:round;"/>
     </g>
     <g id="line2d_4"/>
    </g>
    <g id="xtick_3">
     <g id="line2d_5">
      <path clip-path="url(#ped79574fce)" d="M 1104 1260 
L 1104 172.8 
" style="fill:none;stroke:#ffffff;stroke-linecap:round;"/>
     </g>
     <g id="line2d_6"/>
     <g id="text_2">
      <!-- mid range -->
      <defs>
       <path d="M 6.59375 0 
L 6.59375 51.859375 
L 14.453125 51.859375 
L 14.453125 44.578125 
Q 16.890625 48.390625 20.9375 50.703125 
Q 25 53.03125 30.171875 53.03125 
Q 35.9375 53.03125 39.625 50.640625 
Q 43.3125 48.25 44.828125 43.953125 
Q 50.984375 53.03125 60.84375 53.03125 
Q 68.5625 53.03125 72.703125 48.75 
Q 76.859375 44.484375 76.859375 35.59375 
L 76.859375 0 
L 68.109375 0 
L 68.109375 32.671875 
Q 68.109375 37.9375 67.25 40.25 
Q 66.40625 42.578125 64.15625 43.984375 
Q 61.921875 45.40625 58.890625 45.40625 
Q 53.421875 45.40625 49.796875 41.765625 
Q 46.1875 38.140625 46.1875 30.125 
L 46.1875 0 
L 37.40625 0 
L 37.40625 33.6875 
Q 37.40625 39.546875 35.25 42.46875 
Q 33.109375 45.40625 28.21875 45.40625 
Q 24.515625 45.40625 21.359375 43.453125 
Q 18.21875 41.5 16.796875 37.734375 
Q 15.375 33.984375 15.375 26.90625 
L 15.375 0 
z
" id="ArialMT-6d"/>
       <path d="M 6.640625 61.46875 
L 6.640625 71.578125 
L 15.4375 71.578125 
L 15.4375 61.46875 
z
M 6.640625 0 
L 6.640625 51.859375 
L 15.4375 51.859375 
L 15.4375 0 
z
" id="ArialMT-69"/>
       <path d="M 40.234375 0 
L 40.234375 6.546875 
Q 35.296875 -1.171875 25.734375 -1.171875 
Q 19.53125 -1.171875 14.328125 2.25 
Q 9.125 5.671875 6.265625 11.796875 
Q 3.421875 17.921875 3.421875 25.875 
Q 3.421875 33.640625 6 39.96875 
Q 8.59375 46.296875 13.765625 49.65625 
Q 18.953125 53.03125 25.34375 53.03125 
Q 30.03125 53.03125 33.6875 51.046875 
Q 37.359375 49.078125 39.65625 45.90625 
L 39.65625 71.578125 
L 48.390625 71.578125 
L 48.390625 0 
z
M 12.453125 25.875 
Q 12.453125 15.921875 16.640625 10.984375 
Q 20.84375 6.0625 26.5625 6.0625 
Q 32.328125 6.0625 36.34375 10.765625 
Q 40.375 15.484375 40.375 25.140625 
Q 40.375 35.796875 36.265625 40.765625 
Q 32.171875 45.75 26.171875 45.75 
Q 20.3125 45.75 16.375 40.96875 
Q 12.453125 36.1875 12.453125 25.875 
z
" id="ArialMT-64"/>
      </defs>
      <g style="fill:#262626;" transform="translate(1059.535938 1281.315625)scale(0.2 -0.2)">
       <use xlink:href="#ArialMT-6d"/>
       <use x="83.300781" xlink:href="#ArialMT-69"/>
       <use x="105.517578" xlink:href="#ArialMT-64"/>
       <use x="161.132812" xlink:href="#ArialMT-20"/>
       <use x="188.916016" xlink:href="#ArialMT-72"/>
       <use x="222.216797" xlink:href="#ArialMT-61"/>
       <use x="277.832031" xlink:href="#ArialMT-6e"/>
       <use x="333.447266" xlink:href="#ArialMT-67"/>
       <use x="389.0625" xlink:href="#ArialMT-65"/>
      </g>
     </g>
    </g>
    <g id="xtick_4">
     <g id="line2d_7">
      <path clip-path="url(#ped79574fce)" d="M 1476 1260 
L 1476 172.8 
" style="fill:none;stroke:#ffffff;stroke-linecap:round;"/>
     </g>
     <g id="line2d_8"/>
    </g>
    <g id="xtick_5">
     <g id="line2d_9">
      <path clip-path="url(#ped79574fce)" d="M 1848 1260 
L 1848 172.8 
" style="fill:none;stroke:#ffffff;stroke-linecap:round;"/>
     </g>
     <g id="line2d_10"/>
     <g id="text_3">
      <!-- high range -->
      <defs>
       <path d="M 6.59375 0 
L 6.59375 71.578125 
L 15.375 71.578125 
L 15.375 45.90625 
Q 21.53125 53.03125 30.90625 53.03125 
Q 36.671875 53.03125 40.921875 50.75 
Q 45.171875 48.484375 47 44.484375 
Q 48.828125 40.484375 48.828125 32.859375 
L 48.828125 0 
L 40.046875 0 
L 40.046875 32.859375 
Q 40.046875 39.453125 37.1875 42.453125 
Q 34.328125 45.453125 29.109375 45.453125 
Q 25.203125 45.453125 21.75 43.421875 
Q 18.3125 41.40625 16.84375 37.9375 
Q 15.375 34.46875 15.375 28.375 
L 15.375 0 
z
" id="ArialMT-68"/>
      </defs>
      <g style="fill:#262626;" transform="translate(1800.74375 1281.315625)scale(0.2 -0.2)">
       <use xlink:href="#ArialMT-68"/>
       <use x="55.615234" xlink:href="#ArialMT-69"/>
       <use x="77.832031" xlink:href="#ArialMT-67"/>
       <use x="133.447266" xlink:href="#ArialMT-68"/>
       <use x="189.0625" xlink:href="#ArialMT-20"/>
       <use x="216.845703" xlink:href="#ArialMT-72"/>
       <use x="250.146484" xlink:href="#ArialMT-61"/>
       <use x="305.761719" xlink:href="#ArialMT-6e"/>
       <use x="361.376953" xlink:href="#ArialMT-67"/>
       <use x="416.992188" xlink:href="#ArialMT-65"/>
      </g>
     </g>
    </g>
    <g id="xtick_6">
     <g id="line2d_11">
      <path clip-path="url(#ped79574fce)" d="M 2220 1260 
L 2220 172.8 
" style="fill:none;stroke:#ffffff;stroke-linecap:round;"/>
     </g>
     <g id="line2d_12"/>
    </g>
    <g id="xtick_7">
     <g id="line2d_13">
      <path clip-path="url(#ped79574fce)" d="M 2592 1260 
L 2592 172.8 
" style="fill:none;stroke:#ffffff;stroke-linecap:round;"/>
     </g>
     <g id="line2d_14"/>
     <g id="text_4">
      <!-- unknown range -->
      <defs>
       <path d="M 40.578125 0 
L 40.578125 7.625 
Q 34.515625 -1.171875 24.125 -1.171875 
Q 19.53125 -1.171875 15.546875 0.578125 
Q 11.578125 2.34375 9.640625 5 
Q 7.71875 7.671875 6.9375 11.53125 
Q 6.390625 14.109375 6.390625 19.734375 
L 6.390625 51.859375 
L 15.1875 51.859375 
L 15.1875 23.09375 
Q 15.1875 16.21875 15.71875 13.8125 
Q 16.546875 10.359375 19.234375 8.375 
Q 21.921875 6.390625 25.875 6.390625 
Q 29.828125 6.390625 33.296875 8.421875 
Q 36.765625 10.453125 38.203125 13.9375 
Q 39.65625 17.4375 39.65625 24.078125 
L 39.65625 51.859375 
L 48.4375 51.859375 
L 48.4375 0 
z
" id="ArialMT-75"/>
       <path d="M 6.640625 0 
L 6.640625 71.578125 
L 15.4375 71.578125 
L 15.4375 30.765625 
L 36.234375 51.859375 
L 47.609375 51.859375 
L 27.78125 32.625 
L 49.609375 0 
L 38.765625 0 
L 21.625 26.515625 
L 15.4375 20.5625 
L 15.4375 0 
z
" id="ArialMT-6b"/>
      </defs>
      <g style="fill:#262626;" transform="translate(2523.621875 1281.315625)scale(0.2 -0.2)">
       <use xlink:href="#ArialMT-75"/>
       <use x="55.615234" xlink:href="#ArialMT-6e"/>
       <use x="111.230469" xlink:href="#ArialMT-6b"/>
       <use x="161.230469" xlink:href="#ArialMT-6e"/>
       <use x="216.845703" xlink:href="#ArialMT-6f"/>
       <use x="272.460938" xlink:href="#ArialMT-77"/>
       <use x="344.677734" xlink:href="#ArialMT-6e"/>
       <use x="400.292969" xlink:href="#ArialMT-20"/>
       <use x="428.076172" xlink:href="#ArialMT-72"/>
       <use x="461.376953" xlink:href="#ArialMT-61"/>
       <use x="516.992188" xlink:href="#ArialMT-6e"/>
       <use x="572.607422" xlink:href="#ArialMT-67"/>
       <use x="628.222656" xlink:href="#ArialMT-65"/>
      </g>
     </g>
    </g>
   </g>
   <g id="matplotlib.axis_2">
    <g id="ytick_1">
     <g id="line2d_15">
      <path clip-path="url(#ped79574fce)" d="M 360 1242.146183 
L 2592 1242.146183 
" style="fill:none;stroke:#ffffff;stroke-linecap:round;"/>
     </g>
     <g id="line2d_16"/>
     <g id="text_5">
      <!-- 0.0 -->
      <defs>
       <path d="M 4.15625 35.296875 
Q 4.15625 48 6.765625 55.734375 
Q 9.375 63.484375 14.515625 67.671875 
Q 19.671875 71.875 27.484375 71.875 
Q 33.25 71.875 37.59375 69.546875 
Q 41.9375 67.234375 44.765625 62.859375 
Q 47.609375 58.5 49.21875 52.21875 
Q 50.828125 45.953125 50.828125 35.296875 
Q 50.828125 22.703125 48.234375 14.96875 
Q 45.65625 7.234375 40.5 3 
Q 35.359375 -1.21875 27.484375 -1.21875 
Q 17.140625 -1.21875 11.234375 6.203125 
Q 4.15625 15.140625 4.15625 35.296875 
z
M 13.1875 35.296875 
Q 13.1875 17.671875 17.3125 11.828125 
Q 21.4375 6 27.484375 6 
Q 33.546875 6 37.671875 11.859375 
Q 41.796875 17.71875 41.796875 35.296875 
Q 41.796875 52.984375 37.671875 58.78125 
Q 33.546875 64.59375 27.390625 64.59375 
Q 21.34375 64.59375 17.71875 59.46875 
Q 13.1875 52.9375 13.1875 35.296875 
z
" id="ArialMT-30"/>
       <path d="M 9.078125 0 
L 9.078125 10.015625 
L 19.09375 10.015625 
L 19.09375 0 
z
" id="ArialMT-2e"/>
      </defs>
      <g style="fill:#262626;" transform="translate(325.2 1249.303996)scale(0.2 -0.2)">
       <use xlink:href="#ArialMT-30"/>
       <use x="55.615234" xlink:href="#ArialMT-2e"/>
       <use x="83.398438" xlink:href="#ArialMT-30"/>
      </g>
     </g>
    </g>
    <g id="ytick_2">
     <g id="line2d_17">
      <path clip-path="url(#ped79574fce)" d="M 360 1071.193583 
L 2592 1071.193583 
" style="fill:none;stroke:#ffffff;stroke-linecap:round;"/>
     </g>
     <g id="line2d_18"/>
     <g id="text_6">
      <!-- 0.1 -->
      <defs>
       <path d="M 37.25 0 
L 28.46875 0 
L 28.46875 56 
Q 25.296875 52.984375 20.140625 49.953125 
Q 14.984375 46.921875 10.890625 45.40625 
L 10.890625 53.90625 
Q 18.265625 57.375 23.78125 62.296875 
Q 29.296875 67.234375 31.59375 71.875 
L 37.25 71.875 
z
" id="ArialMT-31"/>
      </defs>
      <g style="fill:#262626;" transform="translate(325.2 1078.351395)scale(0.2 -0.2)">
       <use xlink:href="#ArialMT-30"/>
       <use x="55.615234" xlink:href="#ArialMT-2e"/>
       <use x="83.398438" xlink:href="#ArialMT-31"/>
      </g>
     </g>
    </g>
    <g id="ytick_3">
     <g id="line2d_19">
      <path clip-path="url(#ped79574fce)" d="M 360 900.240983 
L 2592 900.240983 
" style="fill:none;stroke:#ffffff;stroke-linecap:round;"/>
     </g>
     <g id="line2d_20"/>
     <g id="text_7">
      <!-- 0.2 -->
      <defs>
       <path d="M 50.34375 8.453125 
L 50.34375 0 
L 3.03125 0 
Q 2.9375 3.171875 4.046875 6.109375 
Q 5.859375 10.9375 9.828125 15.625 
Q 13.8125 20.3125 21.34375 26.46875 
Q 33.015625 36.03125 37.109375 41.625 
Q 41.21875 47.21875 41.21875 52.203125 
Q 41.21875 57.421875 37.46875 61 
Q 33.734375 64.59375 27.734375 64.59375 
Q 21.390625 64.59375 17.578125 60.78125 
Q 13.765625 56.984375 13.71875 50.25 
L 4.6875 51.171875 
Q 5.609375 61.28125 11.65625 66.578125 
Q 17.71875 71.875 27.9375 71.875 
Q 38.234375 71.875 44.234375 66.15625 
Q 50.25 60.453125 50.25 52 
Q 50.25 47.703125 48.484375 43.546875 
Q 46.734375 39.40625 42.65625 34.8125 
Q 38.578125 30.21875 29.109375 22.21875 
Q 21.1875 15.578125 18.9375 13.203125 
Q 16.703125 10.84375 15.234375 8.453125 
z
" id="ArialMT-32"/>
      </defs>
      <g style="fill:#262626;" transform="translate(325.2 907.398795)scale(0.2 -0.2)">
       <use xlink:href="#ArialMT-30"/>
       <use x="55.615234" xlink:href="#ArialMT-2e"/>
       <use x="83.398438" xlink:href="#ArialMT-32"/>
      </g>
     </g>
    </g>
    <g id="ytick_4">
     <g id="line2d_21">
      <path clip-path="url(#ped79574fce)" d="M 360 729.288382 
L 2592 729.288382 
" style="fill:none;stroke:#ffffff;stroke-linecap:round;"/>
     </g>
     <g id="line2d_22"/>
     <g id="text_8">
      <!-- 0.3 -->
      <defs>
       <path d="M 4.203125 18.890625 
L 12.984375 20.0625 
Q 14.5 12.59375 18.140625 9.296875 
Q 21.78125 6 27 6 
Q 33.203125 6 37.46875 10.296875 
Q 41.75 14.59375 41.75 20.953125 
Q 41.75 27 37.796875 30.921875 
Q 33.84375 34.859375 27.734375 34.859375 
Q 25.25 34.859375 21.53125 33.890625 
L 22.515625 41.609375 
Q 23.390625 41.5 23.921875 41.5 
Q 29.546875 41.5 34.03125 44.421875 
Q 38.53125 47.359375 38.53125 53.46875 
Q 38.53125 58.296875 35.25 61.46875 
Q 31.984375 64.65625 26.8125 64.65625 
Q 21.6875 64.65625 18.265625 61.421875 
Q 14.84375 58.203125 13.875 51.765625 
L 5.078125 53.328125 
Q 6.6875 62.15625 12.390625 67.015625 
Q 18.109375 71.875 26.609375 71.875 
Q 32.46875 71.875 37.390625 69.359375 
Q 42.328125 66.84375 44.9375 62.5 
Q 47.5625 58.15625 47.5625 53.265625 
Q 47.5625 48.640625 45.0625 44.828125 
Q 42.578125 41.015625 37.703125 38.765625 
Q 44.046875 37.3125 47.5625 32.6875 
Q 51.078125 28.078125 51.078125 21.140625 
Q 51.078125 11.765625 44.234375 5.25 
Q 37.40625 -1.265625 26.953125 -1.265625 
Q 17.53125 -1.265625 11.296875 4.34375 
Q 5.078125 9.96875 4.203125 18.890625 
z
" id="ArialMT-33"/>
      </defs>
      <g style="fill:#262626;" transform="translate(325.2 736.446195)scale(0.2 -0.2)">
       <use xlink:href="#ArialMT-30"/>
       <use x="55.615234" xlink:href="#ArialMT-2e"/>
       <use x="83.398438" xlink:href="#ArialMT-33"/>
      </g>
     </g>
    </g>
    <g id="ytick_5">
     <g id="line2d_23">
      <path clip-path="url(#ped79574fce)" d="M 360 558.335782 
L 2592 558.335782 
" style="fill:none;stroke:#ffffff;stroke-linecap:round;"/>
     </g>
     <g id="line2d_24"/>
     <g id="text_9">
      <!-- 0.4 -->
      <defs>
       <path d="M 32.328125 0 
L 32.328125 17.140625 
L 1.265625 17.140625 
L 1.265625 25.203125 
L 33.9375 71.578125 
L 41.109375 71.578125 
L 41.109375 25.203125 
L 50.78125 25.203125 
L 50.78125 17.140625 
L 41.109375 17.140625 
L 41.109375 0 
z
M 32.328125 25.203125 
L 32.328125 57.46875 
L 9.90625 25.203125 
z
" id="ArialMT-34"/>
      </defs>
      <g style="fill:#262626;" transform="translate(325.2 565.493595)scale(0.2 -0.2)">
       <use xlink:href="#ArialMT-30"/>
       <use x="55.615234" xlink:href="#ArialMT-2e"/>
       <use x="83.398438" xlink:href="#ArialMT-34"/>
      </g>
     </g>
    </g>
    <g id="ytick_6">
     <g id="line2d_25">
      <path clip-path="url(#ped79574fce)" d="M 360 387.383182 
L 2592 387.383182 
" style="fill:none;stroke:#ffffff;stroke-linecap:round;"/>
     </g>
     <g id="line2d_26"/>
     <g id="text_10">
      <!-- 0.5 -->
      <defs>
       <path d="M 4.15625 18.75 
L 13.375 19.53125 
Q 14.40625 12.796875 18.140625 9.390625 
Q 21.875 6 27.15625 6 
Q 33.5 6 37.890625 10.78125 
Q 42.28125 15.578125 42.28125 23.484375 
Q 42.28125 31 38.0625 35.34375 
Q 33.84375 39.703125 27 39.703125 
Q 22.75 39.703125 19.328125 37.765625 
Q 15.921875 35.84375 13.96875 32.765625 
L 5.71875 33.84375 
L 12.640625 70.609375 
L 48.25 70.609375 
L 48.25 62.203125 
L 19.671875 62.203125 
L 15.828125 42.96875 
Q 22.265625 47.46875 29.34375 47.46875 
Q 38.71875 47.46875 45.15625 40.96875 
Q 51.609375 34.46875 51.609375 24.265625 
Q 51.609375 14.546875 45.953125 7.46875 
Q 39.0625 -1.21875 27.15625 -1.21875 
Q 17.390625 -1.21875 11.203125 4.25 
Q 5.03125 9.71875 4.15625 18.75 
z
" id="ArialMT-35"/>
      </defs>
      <g style="fill:#262626;" transform="translate(325.2 394.540995)scale(0.2 -0.2)">
       <use xlink:href="#ArialMT-30"/>
       <use x="55.615234" xlink:href="#ArialMT-2e"/>
       <use x="83.398438" xlink:href="#ArialMT-35"/>
      </g>
     </g>
    </g>
    <g id="ytick_7">
     <g id="line2d_27">
      <path clip-path="url(#ped79574fce)" d="M 360 216.430582 
L 2592 216.430582 
" style="fill:none;stroke:#ffffff;stroke-linecap:round;"/>
     </g>
     <g id="line2d_28"/>
     <g id="text_11">
      <!-- 0.6 -->
      <defs>
       <path d="M 49.75 54.046875 
L 41.015625 53.375 
Q 39.84375 58.546875 37.703125 60.890625 
Q 34.125 64.65625 28.90625 64.65625 
Q 24.703125 64.65625 21.53125 62.3125 
Q 17.390625 59.28125 14.984375 53.46875 
Q 12.59375 47.65625 12.5 36.921875 
Q 15.671875 41.75 20.265625 44.09375 
Q 24.859375 46.4375 29.890625 46.4375 
Q 38.671875 46.4375 44.84375 39.96875 
Q 51.03125 33.5 51.03125 23.25 
Q 51.03125 16.5 48.125 10.71875 
Q 45.21875 4.9375 40.140625 1.859375 
Q 35.0625 -1.21875 28.609375 -1.21875 
Q 17.625 -1.21875 10.6875 6.859375 
Q 3.765625 14.9375 3.765625 33.5 
Q 3.765625 54.25 11.421875 63.671875 
Q 18.109375 71.875 29.4375 71.875 
Q 37.890625 71.875 43.28125 67.140625 
Q 48.6875 62.40625 49.75 54.046875 
z
M 13.875 23.1875 
Q 13.875 18.65625 15.796875 14.5 
Q 17.71875 10.359375 21.1875 8.171875 
Q 24.65625 6 28.46875 6 
Q 34.03125 6 38.03125 10.484375 
Q 42.046875 14.984375 42.046875 22.703125 
Q 42.046875 30.125 38.078125 34.390625 
Q 34.125 38.671875 28.125 38.671875 
Q 22.171875 38.671875 18.015625 34.390625 
Q 13.875 30.125 13.875 23.1875 
z
" id="ArialMT-36"/>
      </defs>
      <g style="fill:#262626;" transform="translate(325.2 223.588394)scale(0.2 -0.2)">
       <use xlink:href="#ArialMT-30"/>
       <use x="55.615234" xlink:href="#ArialMT-2e"/>
       <use x="83.398438" xlink:href="#ArialMT-36"/>
      </g>
     </g>
    </g>
   </g>
   <g id="line2d_29">
    <path clip-path="url(#ped79574fce)" d="M 360 970.334536 
L 1104 288.814123 
L 1848 1189.376889 
L 2592 810.533183 
" style="fill:none;stroke:#4c72b0;stroke-linecap:round;stroke-width:1.75;"/>
   </g>
   <g id="line2d_30">
    <path clip-path="url(#ped79574fce)" d="M 360 838.140554 
L 1104 592.032322 
L 1848 1183.044923 
L 2592 645.840932 
" style="fill:none;stroke:#55a868;stroke-linecap:round;stroke-width:1.75;"/>
   </g>
   <g id="line2d_31">
    <path clip-path="url(#ped79574fce)" d="M 360 945.084335 
L 1104 495.433342 
L 1848 1188.780564 
L 2592 629.760489 
" style="fill:none;stroke:#c44e52;stroke-linecap:round;stroke-width:1.75;"/>
   </g>
   <g id="line2d_32">
    <path clip-path="url(#ped79574fce)" d="M 360 963.665895 
L 1104 670.694004 
L 1848 1209.781605 
L 2592 414.917226 
" style="fill:none;stroke:#8172b2;stroke-linecap:round;stroke-width:1.75;"/>
   </g>
   <g id="line2d_33">
    <path clip-path="url(#ped79574fce)" d="M 360 1053.619016 
L 1104 713.311504 
L 1848 1202.203987 
L 2592 289.924223 
" style="fill:none;stroke:#ccb974;stroke-linecap:round;stroke-width:1.75;"/>
   </g>
   <g id="line2d_34">
    <path clip-path="url(#ped79574fce)" d="M 360 1023.88412 
L 1104 356.907761 
L 1848 1172.488078 
L 2592 705.778772 
" style="fill:none;stroke:#64b5cd;stroke-linecap:round;stroke-width:1.75;"/>
   </g>
   <g id="line2d_35">
    <path clip-path="url(#ped79574fce)" d="M 360 866.260381 
L 1104 525.142376 
L 1848 1193.602467 
L 2592 674.053505 
" style="fill:none;stroke:#4c72b0;stroke-linecap:round;stroke-width:1.75;"/>
   </g>
   <g id="line2d_36">
    <path clip-path="url(#ped79574fce)" d="M 360 1029.772635 
L 1104 438.855397 
L 1848 1165.140507 
L 2592 625.290191 
" style="fill:none;stroke:#55a868;stroke-linecap:round;stroke-width:1.75;"/>
   </g>
   <g id="line2d_37">
    <path clip-path="url(#ped79574fce)" d="M 360 947.372007 
L 1104 340.580597 
L 1848 1206.83897 
L 2592 764.267157 
" style="fill:none;stroke:#c44e52;stroke-linecap:round;stroke-width:1.75;"/>
   </g>
   <g id="line2d_38">
    <path clip-path="url(#ped79574fce)" d="M 360 861.742274 
L 1104 354.842607 
L 1848 1199.98093 
L 2592 842.492919 
" style="fill:none;stroke:#8172b2;stroke-linecap:round;stroke-width:1.75;"/>
   </g>
   <g id="line2d_39">
    <path clip-path="url(#ped79574fce)" d="M 360 1157.322374 
L 1104 388.470667 
L 1848 1113.822984 
L 2592 599.442705 
" style="fill:none;stroke:#ccb974;stroke-linecap:round;stroke-width:1.75;"/>
   </g>
   <g id="line2d_40">
    <path clip-path="url(#ped79574fce)" d="M 360 1098.548183 
L 1104 745.832182 
L 1848 1192.460183 
L 2592 222.218182 
" style="fill:none;stroke:#64b5cd;stroke-linecap:round;stroke-width:1.75;"/>
   </g>
   <g id="line2d_41">
    <path clip-path="url(#ped79574fce)" d="M 360 1051.425448 
L 1104 398.520159 
L 1848 1178.108564 
L 2592 631.004559 
" style="fill:none;stroke:#4c72b0;stroke-linecap:round;stroke-width:1.75;"/>
   </g>
   <g id="line2d_42">
    <path clip-path="url(#ped79574fce)" d="M 360 767.418135 
L 1104 614.646609 
L 1848 1210.581818 
L 2592 666.412168 
" style="fill:none;stroke:#55a868;stroke-linecap:round;stroke-width:1.75;"/>
   </g>
   <g id="line2d_43">
    <path clip-path="url(#ped79574fce)" d="M 360 923.127967 
L 1104 551.008654 
L 1848 1198.101087 
L 2592 586.821022 
" style="fill:none;stroke:#c44e52;stroke-linecap:round;stroke-width:1.75;"/>
   </g>
   <g id="line2d_44">
    <path clip-path="url(#ped79574fce)" d="M 360 900.923428 
L 1104 477.807212 
L 1848 1184.138315 
L 2592 696.189775 
" style="fill:none;stroke:#8172b2;stroke-linecap:round;stroke-width:1.75;"/>
   </g>
   <g id="line2d_45">
    <path clip-path="url(#ped79574fce)" d="M 360 961.856009 
L 1104 441.545081 
L 1848 1181.319648 
L 2592 674.337991 
" style="fill:none;stroke:#ccb974;stroke-linecap:round;stroke-width:1.75;"/>
   </g>
   <g id="line2d_46">
    <path clip-path="url(#ped79574fce)" d="M 360 1132.861416 
L 1104 282.001442 
L 1848 1148.473525 
L 2592 695.722347 
" style="fill:none;stroke:#64b5cd;stroke-linecap:round;stroke-width:1.75;"/>
   </g>
   <g id="line2d_47">
    <path clip-path="url(#ped79574fce)" d="M 360 1102.116749 
L 1104 605.01226 
L 1848 1192.552425 
L 2592 359.377295 
" style="fill:none;stroke:#4c72b0;stroke-linecap:round;stroke-width:1.75;"/>
   </g>
   <g id="line2d_48">
    <path clip-path="url(#ped79574fce)" d="M 360 1051.542006 
L 1104 597.065691 
L 1848 1187.687847 
L 2592 422.763187 
" style="fill:none;stroke:#55a868;stroke-linecap:round;stroke-width:1.75;"/>
   </g>
   <g id="line2d_49">
    <path clip-path="url(#ped79574fce)" d="M 360 924.885563 
L 1104 644.438423 
L 1848 1180.023435 
L 2592 509.71131 
" style="fill:none;stroke:#c44e52;stroke-linecap:round;stroke-width:1.75;"/>
   </g>
   <g id="line2d_50">
    <path clip-path="url(#ped79574fce)" d="M 360 1074.332946 
L 1104 480.137097 
L 1848 1172.509398 
L 2592 532.079289 
" style="fill:none;stroke:#8172b2;stroke-linecap:round;stroke-width:1.75;"/>
   </g>
   <g id="line2d_51">
    <path clip-path="url(#ped79574fce)" d="M 360 826.432876 
L 1104 564.848262 
L 1848 1198.72965 
L 2592 669.047942 
" style="fill:none;stroke:#ccb974;stroke-linecap:round;stroke-width:1.75;"/>
   </g>
   <g id="line2d_52">
    <path clip-path="url(#ped79574fce)" d="M 360 1050.476326 
L 1104 434.595978 
L 1848 1143.49258 
L 2592 630.493846 
" style="fill:none;stroke:#64b5cd;stroke-linecap:round;stroke-width:1.75;"/>
   </g>
   <g id="line2d_53">
    <path clip-path="url(#ped79574fce)" d="M 360 1043.770368 
L 1104 417.495849 
L 1848 1164.106103 
L 2592 633.686411 
" style="fill:none;stroke:#4c72b0;stroke-linecap:round;stroke-width:1.75;"/>
   </g>
   <g id="line2d_54">
    <path clip-path="url(#ped79574fce)" d="M 360 935.705115 
L 1104 643.337116 
L 1848 1206.611685 
L 2592 473.404814 
" style="fill:none;stroke:#55a868;stroke-linecap:round;stroke-width:1.75;"/>
   </g>
   <g id="line2d_55">
    <path clip-path="url(#ped79574fce)" d="M 360 819.146977 
L 1104 378.905956 
L 1848 1177.489375 
L 2592 883.516422 
" style="fill:none;stroke:#c44e52;stroke-linecap:round;stroke-width:1.75;"/>
   </g>
   <g id="line2d_56">
    <path clip-path="url(#ped79574fce)" d="M 360 1132.812357 
L 1104 506.512813 
L 1848 1192.851163 
L 2592 426.882396 
" style="fill:none;stroke:#8172b2;stroke-linecap:round;stroke-width:1.75;"/>
   </g>
   <g id="line2d_57">
    <path clip-path="url(#ped79574fce)" d="M 360 1062.196078 
L 1104 495.261434 
L 1848 1192.568093 
L 2592 509.033126 
" style="fill:none;stroke:#ccb974;stroke-linecap:round;stroke-width:1.75;"/>
   </g>
   <g id="line2d_58">
    <path clip-path="url(#ped79574fce)" d="M 360 955.771504 
L 1104 589.444504 
L 1848 1194.17479 
L 2592 519.667932 
" style="fill:none;stroke:#64b5cd;stroke-linecap:round;stroke-width:1.75;"/>
   </g>
   <g id="line2d_59">
    <path clip-path="url(#ped79574fce)" d="M 360 1118.059413 
L 1104 337.645923 
L 1848 1121.135944 
L 2592 682.217451 
" style="fill:none;stroke:#4c72b0;stroke-linecap:round;stroke-width:1.75;"/>
   </g>
   <g id="patch_3">
    <path d="M 360 1260 
L 360 172.8 
" style="fill:none;"/>
   </g>
   <g id="patch_4">
    <path d="M 2592 1260 
L 2592 172.8 
" style="fill:none;"/>
   </g>
   <g id="patch_5">
    <path d="M 360 1260 
L 2592 1260 
" style="fill:none;"/>
   </g>
   <g id="patch_6">
    <path d="M 360 172.8 
L 2592 172.8 
" style="fill:none;"/>
   </g>
   <g id="text_12">
    <!-- Restaurants per price range in each city -->
    <defs>
     <path d="M 7.859375 0 
L 7.859375 71.578125 
L 39.59375 71.578125 
Q 49.171875 71.578125 54.140625 69.640625 
Q 59.125 67.71875 62.109375 62.828125 
Q 65.09375 57.953125 65.09375 52.046875 
Q 65.09375 44.4375 60.15625 39.203125 
Q 55.21875 33.984375 44.921875 32.5625 
Q 48.6875 30.765625 50.640625 29 
Q 54.78125 25.203125 58.5 19.484375 
L 70.953125 0 
L 59.03125 0 
L 49.5625 14.890625 
Q 45.40625 21.34375 42.71875 24.75 
Q 40.046875 28.171875 37.921875 29.53125 
Q 35.796875 30.90625 33.59375 31.453125 
Q 31.984375 31.78125 28.328125 31.78125 
L 17.328125 31.78125 
L 17.328125 0 
z
M 17.328125 39.984375 
L 37.703125 39.984375 
Q 44.1875 39.984375 47.84375 41.328125 
Q 51.515625 42.671875 53.421875 45.625 
Q 55.328125 48.578125 55.328125 52.046875 
Q 55.328125 57.125 51.640625 60.390625 
Q 47.953125 63.671875 39.984375 63.671875 
L 17.328125 63.671875 
z
" id="ArialMT-52"/>
     <path d="M 3.078125 15.484375 
L 11.765625 16.84375 
Q 12.5 11.625 15.84375 8.84375 
Q 19.1875 6.0625 25.203125 6.0625 
Q 31.25 6.0625 34.171875 8.515625 
Q 37.109375 10.984375 37.109375 14.3125 
Q 37.109375 17.28125 34.515625 19 
Q 32.71875 20.171875 25.53125 21.96875 
Q 15.875 24.421875 12.140625 26.203125 
Q 8.40625 27.984375 6.46875 31.125 
Q 4.546875 34.28125 4.546875 38.09375 
Q 4.546875 41.546875 6.125 44.5 
Q 7.71875 47.46875 10.453125 49.421875 
Q 12.5 50.921875 16.03125 51.96875 
Q 19.578125 53.03125 23.640625 53.03125 
Q 29.734375 53.03125 34.34375 51.265625 
Q 38.96875 49.515625 41.15625 46.5 
Q 43.359375 43.5 44.1875 38.484375 
L 35.59375 37.3125 
Q 35.015625 41.3125 32.203125 43.546875 
Q 29.390625 45.796875 24.265625 45.796875 
Q 18.21875 45.796875 15.625 43.796875 
Q 13.03125 41.796875 13.03125 39.109375 
Q 13.03125 37.40625 14.109375 36.03125 
Q 15.1875 34.625 17.484375 33.6875 
Q 18.796875 33.203125 25.25 31.453125 
Q 34.578125 28.953125 38.25 27.359375 
Q 41.9375 25.78125 44.03125 22.75 
Q 46.140625 19.734375 46.140625 15.234375 
Q 46.140625 10.84375 43.578125 6.953125 
Q 41.015625 3.078125 36.171875 0.953125 
Q 31.34375 -1.171875 25.25 -1.171875 
Q 15.140625 -1.171875 9.84375 3.03125 
Q 4.546875 7.234375 3.078125 15.484375 
z
" id="ArialMT-73"/>
     <path d="M 25.78125 7.859375 
L 27.046875 0.09375 
Q 23.34375 -0.6875 20.40625 -0.6875 
Q 15.625 -0.6875 12.984375 0.828125 
Q 10.359375 2.34375 9.28125 4.8125 
Q 8.203125 7.28125 8.203125 15.1875 
L 8.203125 45.015625 
L 1.765625 45.015625 
L 1.765625 51.859375 
L 8.203125 51.859375 
L 8.203125 64.703125 
L 16.9375 69.96875 
L 16.9375 51.859375 
L 25.78125 51.859375 
L 25.78125 45.015625 
L 16.9375 45.015625 
L 16.9375 14.703125 
Q 16.9375 10.9375 17.40625 9.859375 
Q 17.875 8.796875 18.921875 8.15625 
Q 19.96875 7.515625 21.921875 7.515625 
Q 23.390625 7.515625 25.78125 7.859375 
z
" id="ArialMT-74"/>
     <path d="M 6.59375 -19.875 
L 6.59375 51.859375 
L 14.59375 51.859375 
L 14.59375 45.125 
Q 17.4375 49.078125 21 51.046875 
Q 24.5625 53.03125 29.640625 53.03125 
Q 36.28125 53.03125 41.359375 49.609375 
Q 46.4375 46.1875 49.015625 39.953125 
Q 51.609375 33.734375 51.609375 26.3125 
Q 51.609375 18.359375 48.75 11.984375 
Q 45.90625 5.609375 40.453125 2.21875 
Q 35.015625 -1.171875 29 -1.171875 
Q 24.609375 -1.171875 21.109375 0.6875 
Q 17.625 2.546875 15.375 5.375 
L 15.375 -19.875 
z
M 14.546875 25.640625 
Q 14.546875 15.625 18.59375 10.84375 
Q 22.65625 6.0625 28.421875 6.0625 
Q 34.28125 6.0625 38.453125 11.015625 
Q 42.625 15.96875 42.625 26.375 
Q 42.625 36.28125 38.546875 41.203125 
Q 34.46875 46.140625 28.8125 46.140625 
Q 23.1875 46.140625 18.859375 40.890625 
Q 14.546875 35.640625 14.546875 25.640625 
z
" id="ArialMT-70"/>
     <path d="M 40.4375 19 
L 49.078125 17.875 
Q 47.65625 8.9375 41.8125 3.875 
Q 35.984375 -1.171875 27.484375 -1.171875 
Q 16.84375 -1.171875 10.375 5.78125 
Q 3.90625 12.75 3.90625 25.734375 
Q 3.90625 34.125 6.6875 40.421875 
Q 9.46875 46.734375 15.15625 49.875 
Q 20.84375 53.03125 27.546875 53.03125 
Q 35.984375 53.03125 41.359375 48.75 
Q 46.734375 44.484375 48.25 36.625 
L 39.703125 35.296875 
Q 38.484375 40.53125 35.375 43.15625 
Q 32.28125 45.796875 27.875 45.796875 
Q 21.234375 45.796875 17.078125 41.03125 
Q 12.9375 36.28125 12.9375 25.984375 
Q 12.9375 15.53125 16.9375 10.796875 
Q 20.953125 6.0625 27.390625 6.0625 
Q 32.5625 6.0625 36.03125 9.234375 
Q 39.5 12.40625 40.4375 19 
z
" id="ArialMT-63"/>
     <path d="M 6.203125 -19.96875 
L 5.21875 -11.71875 
Q 8.109375 -12.5 10.25 -12.5 
Q 13.1875 -12.5 14.9375 -11.515625 
Q 16.703125 -10.546875 17.828125 -8.796875 
Q 18.65625 -7.46875 20.515625 -2.25 
Q 20.75 -1.515625 21.296875 -0.09375 
L 1.609375 51.859375 
L 11.078125 51.859375 
L 21.875 21.828125 
Q 23.96875 16.109375 25.640625 9.8125 
Q 27.15625 15.875 29.25 21.625 
L 40.328125 51.859375 
L 49.125 51.859375 
L 29.390625 -0.875 
Q 26.21875 -9.421875 24.46875 -12.640625 
Q 22.125 -17 19.09375 -19.015625 
Q 16.0625 -21.046875 11.859375 -21.046875 
Q 9.328125 -21.046875 6.203125 -19.96875 
z
" id="ArialMT-79"/>
    </defs>
    <g style="fill:#262626;" transform="translate(1369.952812 166.8)scale(0.12 -0.12)">
     <use xlink:href="#ArialMT-52"/>
     <use x="72.216797" xlink:href="#ArialMT-65"/>
     <use x="127.832031" xlink:href="#ArialMT-73"/>
     <use x="177.832031" xlink:href="#ArialMT-74"/>
     <use x="205.615234" xlink:href="#ArialMT-61"/>
     <use x="261.230469" xlink:href="#ArialMT-75"/>
     <use x="316.845703" xlink:href="#ArialMT-72"/>
     <use x="350.146484" xlink:href="#ArialMT-61"/>
     <use x="405.761719" xlink:href="#ArialMT-6e"/>
     <use x="461.376953" xlink:href="#ArialMT-74"/>
     <use x="489.160156" xlink:href="#ArialMT-73"/>
     <use x="539.160156" xlink:href="#ArialMT-20"/>
     <use x="566.943359" xlink:href="#ArialMT-70"/>
     <use x="622.558594" xlink:href="#ArialMT-65"/>
     <use x="678.173828" xlink:href="#ArialMT-72"/>
     <use x="711.474609" xlink:href="#ArialMT-20"/>
     <use x="739.257812" xlink:href="#ArialMT-70"/>
     <use x="794.873047" xlink:href="#ArialMT-72"/>
     <use x="828.173828" xlink:href="#ArialMT-69"/>
     <use x="850.390625" xlink:href="#ArialMT-63"/>
     <use x="900.390625" xlink:href="#ArialMT-65"/>
     <use x="956.005859" xlink:href="#ArialMT-20"/>
     <use x="983.789062" xlink:href="#ArialMT-72"/>
     <use x="1017.089844" xlink:href="#ArialMT-61"/>
     <use x="1072.705078" xlink:href="#ArialMT-6e"/>
     <use x="1128.320312" xlink:href="#ArialMT-67"/>
     <use x="1183.935547" xlink:href="#ArialMT-65"/>
     <use x="1239.550781" xlink:href="#ArialMT-20"/>
     <use x="1267.333984" xlink:href="#ArialMT-69"/>
     <use x="1289.550781" xlink:href="#ArialMT-6e"/>
     <use x="1345.166016" xlink:href="#ArialMT-20"/>
     <use x="1372.949219" xlink:href="#ArialMT-65"/>
     <use x="1428.564453" xlink:href="#ArialMT-61"/>
     <use x="1484.179688" xlink:href="#ArialMT-63"/>
     <use x="1534.179688" xlink:href="#ArialMT-68"/>
     <use x="1589.794922" xlink:href="#ArialMT-20"/>
     <use x="1617.578125" xlink:href="#ArialMT-63"/>
     <use x="1667.578125" xlink:href="#ArialMT-69"/>
     <use x="1689.794922" xlink:href="#ArialMT-74"/>
     <use x="1717.578125" xlink:href="#ArialMT-79"/>
    </g>
   </g>
   <g id="legend_1">
    <g id="text_13">
     <!-- City -->
     <defs>
      <path d="M 58.796875 25.09375 
L 68.265625 22.703125 
Q 65.28125 11.03125 57.546875 4.90625 
Q 49.8125 -1.21875 38.625 -1.21875 
Q 27.046875 -1.21875 19.796875 3.484375 
Q 12.546875 8.203125 8.765625 17.140625 
Q 4.984375 26.078125 4.984375 36.328125 
Q 4.984375 47.515625 9.25 55.828125 
Q 13.53125 64.15625 21.40625 68.46875 
Q 29.296875 72.796875 38.765625 72.796875 
Q 49.515625 72.796875 56.828125 67.328125 
Q 64.15625 61.859375 67.046875 51.953125 
L 57.71875 49.75 
Q 55.21875 57.5625 50.484375 61.125 
Q 45.75 64.703125 38.578125 64.703125 
Q 30.328125 64.703125 24.78125 60.734375 
Q 19.234375 56.78125 16.984375 50.109375 
Q 14.75 43.453125 14.75 36.375 
Q 14.75 27.25 17.40625 20.4375 
Q 20.0625 13.625 25.671875 10.25 
Q 31.296875 6.890625 37.84375 6.890625 
Q 45.796875 6.890625 51.3125 11.46875 
Q 56.84375 16.0625 58.796875 25.09375 
z
" id="ArialMT-43"/>
     </defs>
     <g style="fill:#262626;" transform="translate(401.302031 190.535625)scale(0.12 -0.12)">
      <use xlink:href="#ArialMT-43"/>
      <use x="72.216797" xlink:href="#ArialMT-69"/>
      <use x="94.433594" xlink:href="#ArialMT-74"/>
      <use x="122.216797" xlink:href="#ArialMT-79"/>
     </g>
    </g>
    <g id="line2d_60">
     <path d="M 369 201.719062 
L 389 201.719062 
" style="fill:none;stroke:#4c72b0;stroke-linecap:round;stroke-width:1.75;"/>
    </g>
    <g id="line2d_61"/>
    <g id="text_14">
     <!-- Amsterdam -->
     <defs>
      <path d="M -0.140625 0 
L 27.34375 71.578125 
L 37.546875 71.578125 
L 66.84375 0 
L 56.0625 0 
L 47.703125 21.6875 
L 17.78125 21.6875 
L 9.90625 0 
z
M 20.515625 29.390625 
L 44.78125 29.390625 
L 37.3125 49.21875 
Q 33.890625 58.25 32.234375 64.0625 
Q 30.859375 57.171875 28.375 50.390625 
z
" id="ArialMT-41"/>
     </defs>
     <g style="fill:#262626;" transform="translate(397 205.219062)scale(0.1 -0.1)">
      <use xlink:href="#ArialMT-41"/>
      <use x="66.699219" xlink:href="#ArialMT-6d"/>
      <use x="150" xlink:href="#ArialMT-73"/>
      <use x="200" xlink:href="#ArialMT-74"/>
      <use x="227.783203" xlink:href="#ArialMT-65"/>
      <use x="283.398438" xlink:href="#ArialMT-72"/>
      <use x="316.699219" xlink:href="#ArialMT-64"/>
      <use x="372.314453" xlink:href="#ArialMT-61"/>
      <use x="427.929688" xlink:href="#ArialMT-6d"/>
     </g>
    </g>
    <g id="line2d_62">
     <path d="M 369 215.864375 
L 389 215.864375 
" style="fill:none;stroke:#55a868;stroke-linecap:round;stroke-width:1.75;"/>
    </g>
    <g id="line2d_63"/>
    <g id="text_15">
     <!-- Athens -->
     <g style="fill:#262626;" transform="translate(397 219.364375)scale(0.1 -0.1)">
      <use xlink:href="#ArialMT-41"/>
      <use x="66.699219" xlink:href="#ArialMT-74"/>
      <use x="94.482422" xlink:href="#ArialMT-68"/>
      <use x="150.097656" xlink:href="#ArialMT-65"/>
      <use x="205.712891" xlink:href="#ArialMT-6e"/>
      <use x="261.328125" xlink:href="#ArialMT-73"/>
     </g>
    </g>
    <g id="line2d_64">
     <path d="M 369 230.009687 
L 389 230.009687 
" style="fill:none;stroke:#c44e52;stroke-linecap:round;stroke-width:1.75;"/>
    </g>
    <g id="line2d_65"/>
    <g id="text_16">
     <!-- Barcelona -->
     <defs>
      <path d="M 7.328125 0 
L 7.328125 71.578125 
L 34.1875 71.578125 
Q 42.390625 71.578125 47.34375 69.40625 
Q 52.296875 67.234375 55.09375 62.71875 
Q 57.90625 58.203125 57.90625 53.265625 
Q 57.90625 48.6875 55.421875 44.625 
Q 52.9375 40.578125 47.90625 38.09375 
Q 54.390625 36.1875 57.875 31.59375 
Q 61.375 27 61.375 20.75 
Q 61.375 15.71875 59.25 11.390625 
Q 57.125 7.078125 54 4.734375 
Q 50.875 2.390625 46.15625 1.1875 
Q 41.453125 0 34.625 0 
z
M 16.796875 41.5 
L 32.28125 41.5 
Q 38.578125 41.5 41.3125 42.328125 
Q 44.921875 43.40625 46.75 45.890625 
Q 48.578125 48.390625 48.578125 52.15625 
Q 48.578125 55.71875 46.875 58.421875 
Q 45.171875 61.140625 41.984375 62.140625 
Q 38.8125 63.140625 31.109375 63.140625 
L 16.796875 63.140625 
z
M 16.796875 8.453125 
L 34.625 8.453125 
Q 39.203125 8.453125 41.0625 8.796875 
Q 44.34375 9.375 46.53125 10.734375 
Q 48.734375 12.109375 50.140625 14.71875 
Q 51.5625 17.328125 51.5625 20.75 
Q 51.5625 24.75 49.515625 27.703125 
Q 47.46875 30.671875 43.828125 31.859375 
Q 40.1875 33.0625 33.34375 33.0625 
L 16.796875 33.0625 
z
" id="ArialMT-42"/>
     </defs>
     <g style="fill:#262626;" transform="translate(397 233.509687)scale(0.1 -0.1)">
      <use xlink:href="#ArialMT-42"/>
      <use x="66.699219" xlink:href="#ArialMT-61"/>
      <use x="122.314453" xlink:href="#ArialMT-72"/>
      <use x="155.615234" xlink:href="#ArialMT-63"/>
      <use x="205.615234" xlink:href="#ArialMT-65"/>
      <use x="261.230469" xlink:href="#ArialMT-6c"/>
      <use x="283.447266" xlink:href="#ArialMT-6f"/>
      <use x="339.0625" xlink:href="#ArialMT-6e"/>
      <use x="394.677734" xlink:href="#ArialMT-61"/>
     </g>
    </g>
    <g id="line2d_66">
     <path d="M 369 244.155 
L 389 244.155 
" style="fill:none;stroke:#8172b2;stroke-linecap:round;stroke-width:1.75;"/>
    </g>
    <g id="line2d_67"/>
    <g id="text_17">
     <!-- Berlin -->
     <g style="fill:#262626;" transform="translate(397 247.655)scale(0.1 -0.1)">
      <use xlink:href="#ArialMT-42"/>
      <use x="66.699219" xlink:href="#ArialMT-65"/>
      <use x="122.314453" xlink:href="#ArialMT-72"/>
      <use x="155.615234" xlink:href="#ArialMT-6c"/>
      <use x="177.832031" xlink:href="#ArialMT-69"/>
      <use x="200.048828" xlink:href="#ArialMT-6e"/>
     </g>
    </g>
    <g id="line2d_68">
     <path d="M 369 258.300312 
L 389 258.300312 
" style="fill:none;stroke:#ccb974;stroke-linecap:round;stroke-width:1.75;"/>
    </g>
    <g id="line2d_69"/>
    <g id="text_18">
     <!-- Bratislava -->
     <defs>
      <path d="M 21 0 
L 1.265625 51.859375 
L 10.546875 51.859375 
L 21.6875 20.796875 
Q 23.484375 15.765625 25 10.359375 
Q 26.171875 14.453125 28.265625 20.21875 
L 39.796875 51.859375 
L 48.828125 51.859375 
L 29.203125 0 
z
" id="ArialMT-76"/>
     </defs>
     <g style="fill:#262626;" transform="translate(397 261.800312)scale(0.1 -0.1)">
      <use xlink:href="#ArialMT-42"/>
      <use x="66.699219" xlink:href="#ArialMT-72"/>
      <use x="100" xlink:href="#ArialMT-61"/>
      <use x="155.615234" xlink:href="#ArialMT-74"/>
      <use x="183.398438" xlink:href="#ArialMT-69"/>
      <use x="205.615234" xlink:href="#ArialMT-73"/>
      <use x="255.615234" xlink:href="#ArialMT-6c"/>
      <use x="277.832031" xlink:href="#ArialMT-61"/>
      <use x="333.447266" xlink:href="#ArialMT-76"/>
      <use x="383.447266" xlink:href="#ArialMT-61"/>
     </g>
    </g>
    <g id="line2d_70">
     <path d="M 369 272.445625 
L 389 272.445625 
" style="fill:none;stroke:#64b5cd;stroke-linecap:round;stroke-width:1.75;"/>
    </g>
    <g id="line2d_71"/>
    <g id="text_19">
     <!-- Bruxelles -->
     <defs>
      <path d="M 0.734375 0 
L 19.671875 26.953125 
L 2.15625 51.859375 
L 13.140625 51.859375 
L 21.09375 39.703125 
Q 23.34375 36.234375 24.703125 33.890625 
Q 26.859375 37.109375 28.65625 39.59375 
L 37.40625 51.859375 
L 47.90625 51.859375 
L 29.984375 27.4375 
L 49.265625 0 
L 38.484375 0 
L 27.828125 16.109375 
L 25 20.453125 
L 11.375 0 
z
" id="ArialMT-78"/>
     </defs>
     <g style="fill:#262626;" transform="translate(397 275.945625)scale(0.1 -0.1)">
      <use xlink:href="#ArialMT-42"/>
      <use x="66.699219" xlink:href="#ArialMT-72"/>
      <use x="100" xlink:href="#ArialMT-75"/>
      <use x="155.615234" xlink:href="#ArialMT-78"/>
      <use x="205.615234" xlink:href="#ArialMT-65"/>
      <use x="261.230469" xlink:href="#ArialMT-6c"/>
      <use x="283.447266" xlink:href="#ArialMT-6c"/>
      <use x="305.664062" xlink:href="#ArialMT-65"/>
      <use x="361.279297" xlink:href="#ArialMT-73"/>
     </g>
    </g>
    <g id="line2d_72">
     <path d="M 369 286.590937 
L 389 286.590937 
" style="fill:none;stroke:#4c72b0;stroke-linecap:round;stroke-width:1.75;"/>
    </g>
    <g id="line2d_73"/>
    <g id="text_20">
     <!-- Budapest -->
     <g style="fill:#262626;" transform="translate(397 290.090937)scale(0.1 -0.1)">
      <use xlink:href="#ArialMT-42"/>
      <use x="66.699219" xlink:href="#ArialMT-75"/>
      <use x="122.314453" xlink:href="#ArialMT-64"/>
      <use x="177.929688" xlink:href="#ArialMT-61"/>
      <use x="233.544922" xlink:href="#ArialMT-70"/>
      <use x="289.160156" xlink:href="#ArialMT-65"/>
      <use x="344.775391" xlink:href="#ArialMT-73"/>
      <use x="394.775391" xlink:href="#ArialMT-74"/>
     </g>
    </g>
    <g id="line2d_74">
     <path d="M 369 300.858125 
L 389 300.858125 
" style="fill:none;stroke:#55a868;stroke-linecap:round;stroke-width:1.75;"/>
    </g>
    <g id="line2d_75"/>
    <g id="text_21">
     <!-- Copenhagen -->
     <g style="fill:#262626;" transform="translate(397 304.358125)scale(0.1 -0.1)">
      <use xlink:href="#ArialMT-43"/>
      <use x="72.216797" xlink:href="#ArialMT-6f"/>
      <use x="127.832031" xlink:href="#ArialMT-70"/>
      <use x="183.447266" xlink:href="#ArialMT-65"/>
      <use x="239.0625" xlink:href="#ArialMT-6e"/>
      <use x="294.677734" xlink:href="#ArialMT-68"/>
      <use x="350.292969" xlink:href="#ArialMT-61"/>
      <use x="405.908203" xlink:href="#ArialMT-67"/>
      <use x="461.523438" xlink:href="#ArialMT-65"/>
      <use x="517.138672" xlink:href="#ArialMT-6e"/>
     </g>
    </g>
    <g id="line2d_76">
     <path d="M 369 315.120625 
L 389 315.120625 
" style="fill:none;stroke:#c44e52;stroke-linecap:round;stroke-width:1.75;"/>
    </g>
    <g id="line2d_77"/>
    <g id="text_22">
     <!-- Dublin -->
     <defs>
      <path d="M 7.71875 0 
L 7.71875 71.578125 
L 32.375 71.578125 
Q 40.71875 71.578125 45.125 70.5625 
Q 51.265625 69.140625 55.609375 65.4375 
Q 61.28125 60.640625 64.078125 53.1875 
Q 66.890625 45.75 66.890625 36.1875 
Q 66.890625 28.03125 64.984375 21.734375 
Q 63.09375 15.4375 60.109375 11.296875 
Q 57.125 7.171875 53.578125 4.796875 
Q 50.046875 2.4375 45.046875 1.21875 
Q 40.046875 0 33.546875 0 
z
M 17.1875 8.453125 
L 32.46875 8.453125 
Q 39.546875 8.453125 43.578125 9.765625 
Q 47.609375 11.078125 50 13.484375 
Q 53.375 16.84375 55.25 22.53125 
Q 57.125 28.21875 57.125 36.328125 
Q 57.125 47.5625 53.4375 53.59375 
Q 49.75 59.625 44.484375 61.671875 
Q 40.671875 63.140625 32.234375 63.140625 
L 17.1875 63.140625 
z
" id="ArialMT-44"/>
      <path d="M 14.703125 0 
L 6.546875 0 
L 6.546875 71.578125 
L 15.328125 71.578125 
L 15.328125 46.046875 
Q 20.90625 53.03125 29.546875 53.03125 
Q 34.328125 53.03125 38.59375 51.09375 
Q 42.875 49.171875 45.625 45.671875 
Q 48.390625 42.1875 49.953125 37.25 
Q 51.515625 32.328125 51.515625 26.703125 
Q 51.515625 13.375 44.921875 6.09375 
Q 38.328125 -1.171875 29.109375 -1.171875 
Q 19.921875 -1.171875 14.703125 6.5 
z
M 14.59375 26.3125 
Q 14.59375 17 17.140625 12.84375 
Q 21.296875 6.0625 28.375 6.0625 
Q 34.125 6.0625 38.328125 11.0625 
Q 42.53125 16.0625 42.53125 25.984375 
Q 42.53125 36.140625 38.5 40.96875 
Q 34.46875 45.796875 28.765625 45.796875 
Q 23 45.796875 18.796875 40.796875 
Q 14.59375 35.796875 14.59375 26.3125 
z
" id="ArialMT-62"/>
     </defs>
     <g style="fill:#262626;" transform="translate(397 318.620625)scale(0.1 -0.1)">
      <use xlink:href="#ArialMT-44"/>
      <use x="72.216797" xlink:href="#ArialMT-75"/>
      <use x="127.832031" xlink:href="#ArialMT-62"/>
      <use x="183.447266" xlink:href="#ArialMT-6c"/>
      <use x="205.664062" xlink:href="#ArialMT-69"/>
      <use x="227.880859" xlink:href="#ArialMT-6e"/>
     </g>
    </g>
    <g id="line2d_78">
     <path d="M 369 329.265937 
L 389 329.265937 
" style="fill:none;stroke:#8172b2;stroke-linecap:round;stroke-width:1.75;"/>
    </g>
    <g id="line2d_79"/>
    <g id="text_23">
     <!-- Edinburgh -->
     <defs>
      <path d="M 7.90625 0 
L 7.90625 71.578125 
L 59.671875 71.578125 
L 59.671875 63.140625 
L 17.390625 63.140625 
L 17.390625 41.21875 
L 56.984375 41.21875 
L 56.984375 32.8125 
L 17.390625 32.8125 
L 17.390625 8.453125 
L 61.328125 8.453125 
L 61.328125 0 
z
" id="ArialMT-45"/>
     </defs>
     <g style="fill:#262626;" transform="translate(397 332.765937)scale(0.1 -0.1)">
      <use xlink:href="#ArialMT-45"/>
      <use x="66.699219" xlink:href="#ArialMT-64"/>
      <use x="122.314453" xlink:href="#ArialMT-69"/>
      <use x="144.53125" xlink:href="#ArialMT-6e"/>
      <use x="200.146484" xlink:href="#ArialMT-62"/>
      <use x="255.761719" xlink:href="#ArialMT-75"/>
      <use x="311.376953" xlink:href="#ArialMT-72"/>
      <use x="344.677734" xlink:href="#ArialMT-67"/>
      <use x="400.292969" xlink:href="#ArialMT-68"/>
     </g>
    </g>
    <g id="line2d_80">
     <path d="M 369 343.528437 
L 389 343.528437 
" style="fill:none;stroke:#ccb974;stroke-linecap:round;stroke-width:1.75;"/>
    </g>
    <g id="line2d_81"/>
    <g id="text_24">
     <!-- Geneva -->
     <defs>
      <path d="M 41.21875 28.078125 
L 41.21875 36.46875 
L 71.53125 36.53125 
L 71.53125 9.96875 
Q 64.546875 4.390625 57.125 1.578125 
Q 49.703125 -1.21875 41.890625 -1.21875 
Q 31.34375 -1.21875 22.71875 3.296875 
Q 14.109375 7.8125 9.71875 16.359375 
Q 5.328125 24.90625 5.328125 35.453125 
Q 5.328125 45.90625 9.6875 54.953125 
Q 14.0625 64.015625 22.265625 68.40625 
Q 30.46875 72.796875 41.15625 72.796875 
Q 48.921875 72.796875 55.1875 70.28125 
Q 61.46875 67.78125 65.03125 63.28125 
Q 68.609375 58.796875 70.453125 51.5625 
L 61.921875 49.21875 
Q 60.296875 54.6875 57.90625 57.8125 
Q 55.515625 60.9375 51.0625 62.8125 
Q 46.625 64.703125 41.21875 64.703125 
Q 34.71875 64.703125 29.984375 62.71875 
Q 25.25 60.75 22.34375 57.515625 
Q 19.4375 54.296875 17.828125 50.4375 
Q 15.09375 43.796875 15.09375 36.03125 
Q 15.09375 26.46875 18.390625 20.015625 
Q 21.6875 13.578125 27.984375 10.453125 
Q 34.28125 7.328125 41.359375 7.328125 
Q 47.515625 7.328125 53.375 9.6875 
Q 59.234375 12.0625 62.25 14.75 
L 62.25 28.078125 
z
" id="ArialMT-47"/>
     </defs>
     <g style="fill:#262626;" transform="translate(397 347.028437)scale(0.1 -0.1)">
      <use xlink:href="#ArialMT-47"/>
      <use x="77.783203" xlink:href="#ArialMT-65"/>
      <use x="133.398438" xlink:href="#ArialMT-6e"/>
      <use x="189.013672" xlink:href="#ArialMT-65"/>
      <use x="244.628906" xlink:href="#ArialMT-76"/>
      <use x="294.628906" xlink:href="#ArialMT-61"/>
     </g>
    </g>
    <g id="line2d_82">
     <path d="M 369 357.67375 
L 389 357.67375 
" style="fill:none;stroke:#64b5cd;stroke-linecap:round;stroke-width:1.75;"/>
    </g>
    <g id="line2d_83"/>
    <g id="text_25">
     <!-- Hamburg -->
     <defs>
      <path d="M 8.015625 0 
L 8.015625 71.578125 
L 17.484375 71.578125 
L 17.484375 42.1875 
L 54.6875 42.1875 
L 54.6875 71.578125 
L 64.15625 71.578125 
L 64.15625 0 
L 54.6875 0 
L 54.6875 33.734375 
L 17.484375 33.734375 
L 17.484375 0 
z
" id="ArialMT-48"/>
     </defs>
     <g style="fill:#262626;" transform="translate(397 361.17375)scale(0.1 -0.1)">
      <use xlink:href="#ArialMT-48"/>
      <use x="72.216797" xlink:href="#ArialMT-61"/>
      <use x="127.832031" xlink:href="#ArialMT-6d"/>
      <use x="211.132812" xlink:href="#ArialMT-62"/>
      <use x="266.748047" xlink:href="#ArialMT-75"/>
      <use x="322.363281" xlink:href="#ArialMT-72"/>
      <use x="355.664062" xlink:href="#ArialMT-67"/>
     </g>
    </g>
    <g id="line2d_84">
     <path d="M 369 371.93625 
L 389 371.93625 
" style="fill:none;stroke:#4c72b0;stroke-linecap:round;stroke-width:1.75;"/>
    </g>
    <g id="line2d_85"/>
    <g id="text_26">
     <!-- Helsinki -->
     <g style="fill:#262626;" transform="translate(397 375.43625)scale(0.1 -0.1)">
      <use xlink:href="#ArialMT-48"/>
      <use x="72.216797" xlink:href="#ArialMT-65"/>
      <use x="127.832031" xlink:href="#ArialMT-6c"/>
      <use x="150.048828" xlink:href="#ArialMT-73"/>
      <use x="200.048828" xlink:href="#ArialMT-69"/>
      <use x="222.265625" xlink:href="#ArialMT-6e"/>
      <use x="277.880859" xlink:href="#ArialMT-6b"/>
      <use x="327.880859" xlink:href="#ArialMT-69"/>
     </g>
    </g>
    <g id="line2d_86">
     <path d="M 369 386.081562 
L 389 386.081562 
" style="fill:none;stroke:#55a868;stroke-linecap:round;stroke-width:1.75;"/>
    </g>
    <g id="line2d_87"/>
    <g id="text_27">
     <!-- Krakow -->
     <defs>
      <path d="M 7.328125 0 
L 7.328125 71.578125 
L 16.796875 71.578125 
L 16.796875 36.078125 
L 52.34375 71.578125 
L 65.1875 71.578125 
L 35.15625 42.578125 
L 66.5 0 
L 54 0 
L 28.515625 36.234375 
L 16.796875 24.8125 
L 16.796875 0 
z
" id="ArialMT-4b"/>
     </defs>
     <g style="fill:#262626;" transform="translate(397 389.581562)scale(0.1 -0.1)">
      <use xlink:href="#ArialMT-4b"/>
      <use x="66.699219" xlink:href="#ArialMT-72"/>
      <use x="100" xlink:href="#ArialMT-61"/>
      <use x="155.615234" xlink:href="#ArialMT-6b"/>
      <use x="205.615234" xlink:href="#ArialMT-6f"/>
      <use x="261.230469" xlink:href="#ArialMT-77"/>
     </g>
    </g>
    <g id="line2d_88">
     <path d="M 369 400.226875 
L 389 400.226875 
" style="fill:none;stroke:#c44e52;stroke-linecap:round;stroke-width:1.75;"/>
    </g>
    <g id="line2d_89"/>
    <g id="text_28">
     <!-- Lisbon -->
     <defs>
      <path d="M 7.328125 0 
L 7.328125 71.578125 
L 16.796875 71.578125 
L 16.796875 8.453125 
L 52.046875 8.453125 
L 52.046875 0 
z
" id="ArialMT-4c"/>
     </defs>
     <g style="fill:#262626;" transform="translate(397 403.726875)scale(0.1 -0.1)">
      <use xlink:href="#ArialMT-4c"/>
      <use x="55.615234" xlink:href="#ArialMT-69"/>
      <use x="77.832031" xlink:href="#ArialMT-73"/>
      <use x="127.832031" xlink:href="#ArialMT-62"/>
      <use x="183.447266" xlink:href="#ArialMT-6f"/>
      <use x="239.0625" xlink:href="#ArialMT-6e"/>
     </g>
    </g>
    <g id="line2d_90">
     <path d="M 369 414.372187 
L 389 414.372187 
" style="fill:none;stroke:#8172b2;stroke-linecap:round;stroke-width:1.75;"/>
    </g>
    <g id="line2d_91"/>
    <g id="text_29">
     <!-- Ljubljana -->
     <defs>
      <path d="M 6.546875 61.375 
L 6.546875 71.578125 
L 15.328125 71.578125 
L 15.328125 61.375 
z
M -4.59375 -20.125 
L -2.9375 -12.640625 
Q -0.296875 -13.328125 1.21875 -13.328125 
Q 3.90625 -13.328125 5.21875 -11.546875 
Q 6.546875 -9.765625 6.546875 -2.640625 
L 6.546875 51.859375 
L 15.328125 51.859375 
L 15.328125 -2.828125 
Q 15.328125 -12.40625 12.84375 -16.15625 
Q 9.671875 -21.046875 2.296875 -21.046875 
Q -1.265625 -21.046875 -4.59375 -20.125 
z
" id="ArialMT-6a"/>
     </defs>
     <g style="fill:#262626;" transform="translate(397 417.872187)scale(0.1 -0.1)">
      <use xlink:href="#ArialMT-4c"/>
      <use x="55.615234" xlink:href="#ArialMT-6a"/>
      <use x="77.832031" xlink:href="#ArialMT-75"/>
      <use x="133.447266" xlink:href="#ArialMT-62"/>
      <use x="189.0625" xlink:href="#ArialMT-6c"/>
      <use x="211.279297" xlink:href="#ArialMT-6a"/>
      <use x="233.496094" xlink:href="#ArialMT-61"/>
      <use x="289.111328" xlink:href="#ArialMT-6e"/>
      <use x="344.726562" xlink:href="#ArialMT-61"/>
     </g>
    </g>
    <g id="line2d_92">
     <path d="M 369 428.634687 
L 389 428.634687 
" style="fill:none;stroke:#ccb974;stroke-linecap:round;stroke-width:1.75;"/>
    </g>
    <g id="line2d_93"/>
    <g id="text_30">
     <!-- London -->
     <g style="fill:#262626;" transform="translate(397 432.134687)scale(0.1 -0.1)">
      <use xlink:href="#ArialMT-4c"/>
      <use x="55.615234" xlink:href="#ArialMT-6f"/>
      <use x="111.230469" xlink:href="#ArialMT-6e"/>
      <use x="166.845703" xlink:href="#ArialMT-64"/>
      <use x="222.460938" xlink:href="#ArialMT-6f"/>
      <use x="278.076172" xlink:href="#ArialMT-6e"/>
     </g>
    </g>
    <g id="line2d_94">
     <path d="M 369 442.78 
L 389 442.78 
" style="fill:none;stroke:#64b5cd;stroke-linecap:round;stroke-width:1.75;"/>
    </g>
    <g id="line2d_95"/>
    <g id="text_31">
     <!-- Luxembourg -->
     <g style="fill:#262626;" transform="translate(397 446.28)scale(0.1 -0.1)">
      <use xlink:href="#ArialMT-4c"/>
      <use x="55.615234" xlink:href="#ArialMT-75"/>
      <use x="111.230469" xlink:href="#ArialMT-78"/>
      <use x="161.230469" xlink:href="#ArialMT-65"/>
      <use x="216.845703" xlink:href="#ArialMT-6d"/>
      <use x="300.146484" xlink:href="#ArialMT-62"/>
      <use x="355.761719" xlink:href="#ArialMT-6f"/>
      <use x="411.376953" xlink:href="#ArialMT-75"/>
      <use x="466.992188" xlink:href="#ArialMT-72"/>
      <use x="500.292969" xlink:href="#ArialMT-67"/>
     </g>
    </g>
    <g id="line2d_96">
     <path d="M 369 457.0425 
L 389 457.0425 
" style="fill:none;stroke:#4c72b0;stroke-linecap:round;stroke-width:1.75;"/>
    </g>
    <g id="line2d_97"/>
    <g id="text_32">
     <!-- Lyon -->
     <g style="fill:#262626;" transform="translate(397 460.5425)scale(0.1 -0.1)">
      <use xlink:href="#ArialMT-4c"/>
      <use x="55.568359" xlink:href="#ArialMT-79"/>
      <use x="105.568359" xlink:href="#ArialMT-6f"/>
      <use x="161.183594" xlink:href="#ArialMT-6e"/>
     </g>
    </g>
    <g id="line2d_98">
     <path d="M 369 471.305 
L 389 471.305 
" style="fill:none;stroke:#55a868;stroke-linecap:round;stroke-width:1.75;"/>
    </g>
    <g id="line2d_99"/>
    <g id="text_33">
     <!-- Madrid -->
     <defs>
      <path d="M 7.421875 0 
L 7.421875 71.578125 
L 21.6875 71.578125 
L 38.625 20.90625 
Q 40.96875 13.8125 42.046875 10.296875 
Q 43.265625 14.203125 45.84375 21.78125 
L 62.984375 71.578125 
L 75.734375 71.578125 
L 75.734375 0 
L 66.609375 0 
L 66.609375 59.90625 
L 45.796875 0 
L 37.25 0 
L 16.546875 60.9375 
L 16.546875 0 
z
" id="ArialMT-4d"/>
     </defs>
     <g style="fill:#262626;" transform="translate(397 474.805)scale(0.1 -0.1)">
      <use xlink:href="#ArialMT-4d"/>
      <use x="83.300781" xlink:href="#ArialMT-61"/>
      <use x="138.916016" xlink:href="#ArialMT-64"/>
      <use x="194.53125" xlink:href="#ArialMT-72"/>
      <use x="227.832031" xlink:href="#ArialMT-69"/>
      <use x="250.048828" xlink:href="#ArialMT-64"/>
     </g>
    </g>
    <g id="line2d_100">
     <path d="M 369 485.450312 
L 389 485.450312 
" style="fill:none;stroke:#c44e52;stroke-linecap:round;stroke-width:1.75;"/>
    </g>
    <g id="line2d_101"/>
    <g id="text_34">
     <!-- Milan -->
     <g style="fill:#262626;" transform="translate(397 488.950312)scale(0.1 -0.1)">
      <use xlink:href="#ArialMT-4d"/>
      <use x="83.300781" xlink:href="#ArialMT-69"/>
      <use x="105.517578" xlink:href="#ArialMT-6c"/>
      <use x="127.734375" xlink:href="#ArialMT-61"/>
      <use x="183.349609" xlink:href="#ArialMT-6e"/>
     </g>
    </g>
    <g id="line2d_102">
     <path d="M 369 499.595625 
L 389 499.595625 
" style="fill:none;stroke:#8172b2;stroke-linecap:round;stroke-width:1.75;"/>
    </g>
    <g id="line2d_103"/>
    <g id="text_35">
     <!-- Munich -->
     <g style="fill:#262626;" transform="translate(397 503.095625)scale(0.1 -0.1)">
      <use xlink:href="#ArialMT-4d"/>
      <use x="83.300781" xlink:href="#ArialMT-75"/>
      <use x="138.916016" xlink:href="#ArialMT-6e"/>
      <use x="194.53125" xlink:href="#ArialMT-69"/>
      <use x="216.748047" xlink:href="#ArialMT-63"/>
      <use x="266.748047" xlink:href="#ArialMT-68"/>
     </g>
    </g>
    <g id="line2d_104">
     <path d="M 369 513.869062 
L 389 513.869062 
" style="fill:none;stroke:#ccb974;stroke-linecap:round;stroke-width:1.75;"/>
    </g>
    <g id="line2d_105"/>
    <g id="text_36">
     <!-- Oporto -->
     <defs>
      <path d="M 4.828125 34.859375 
Q 4.828125 52.6875 14.390625 62.765625 
Q 23.96875 72.859375 39.109375 72.859375 
Q 49.03125 72.859375 56.984375 68.109375 
Q 64.9375 63.375 69.109375 54.90625 
Q 73.296875 46.4375 73.296875 35.6875 
Q 73.296875 24.8125 68.890625 16.21875 
Q 64.5 7.625 56.4375 3.203125 
Q 48.390625 -1.21875 39.0625 -1.21875 
Q 28.953125 -1.21875 20.984375 3.65625 
Q 13.03125 8.546875 8.921875 16.984375 
Q 4.828125 25.4375 4.828125 34.859375 
z
M 14.59375 34.71875 
Q 14.59375 21.78125 21.546875 14.328125 
Q 28.515625 6.890625 39.015625 6.890625 
Q 49.703125 6.890625 56.609375 14.40625 
Q 63.53125 21.921875 63.53125 35.75 
Q 63.53125 44.484375 60.578125 51 
Q 57.625 57.515625 51.921875 61.109375 
Q 46.234375 64.703125 39.15625 64.703125 
Q 29.109375 64.703125 21.84375 57.78125 
Q 14.59375 50.875 14.59375 34.71875 
z
" id="ArialMT-4f"/>
     </defs>
     <g style="fill:#262626;" transform="translate(397 517.369062)scale(0.1 -0.1)">
      <use xlink:href="#ArialMT-4f"/>
      <use x="77.783203" xlink:href="#ArialMT-70"/>
      <use x="133.398438" xlink:href="#ArialMT-6f"/>
      <use x="189.013672" xlink:href="#ArialMT-72"/>
      <use x="222.314453" xlink:href="#ArialMT-74"/>
      <use x="250.097656" xlink:href="#ArialMT-6f"/>
     </g>
    </g>
    <g id="line2d_106">
     <path d="M 369 528.014375 
L 389 528.014375 
" style="fill:none;stroke:#64b5cd;stroke-linecap:round;stroke-width:1.75;"/>
    </g>
    <g id="line2d_107"/>
    <g id="text_37">
     <!-- Oslo -->
     <g style="fill:#262626;" transform="translate(397 531.514375)scale(0.1 -0.1)">
      <use xlink:href="#ArialMT-4f"/>
      <use x="77.783203" xlink:href="#ArialMT-73"/>
      <use x="127.783203" xlink:href="#ArialMT-6c"/>
      <use x="150" xlink:href="#ArialMT-6f"/>
     </g>
    </g>
    <g id="line2d_108">
     <path d="M 369 542.159687 
L 389 542.159687 
" style="fill:none;stroke:#4c72b0;stroke-linecap:round;stroke-width:1.75;"/>
    </g>
    <g id="line2d_109"/>
    <g id="text_38">
     <!-- Paris -->
     <defs>
      <path d="M 7.71875 0 
L 7.71875 71.578125 
L 34.71875 71.578125 
Q 41.84375 71.578125 45.609375 70.90625 
Q 50.875 70.015625 54.4375 67.546875 
Q 58.015625 65.09375 60.1875 60.640625 
Q 62.359375 56.203125 62.359375 50.875 
Q 62.359375 41.75 56.546875 35.421875 
Q 50.734375 29.109375 35.546875 29.109375 
L 17.1875 29.109375 
L 17.1875 0 
z
M 17.1875 37.546875 
L 35.6875 37.546875 
Q 44.875 37.546875 48.734375 40.96875 
Q 52.59375 44.390625 52.59375 50.59375 
Q 52.59375 55.078125 50.3125 58.265625 
Q 48.046875 61.46875 44.34375 62.5 
Q 41.9375 63.140625 35.5 63.140625 
L 17.1875 63.140625 
z
" id="ArialMT-50"/>
     </defs>
     <g style="fill:#262626;" transform="translate(397 545.659687)scale(0.1 -0.1)">
      <use xlink:href="#ArialMT-50"/>
      <use x="66.699219" xlink:href="#ArialMT-61"/>
      <use x="122.314453" xlink:href="#ArialMT-72"/>
      <use x="155.615234" xlink:href="#ArialMT-69"/>
      <use x="177.832031" xlink:href="#ArialMT-73"/>
     </g>
    </g>
    <g id="line2d_110">
     <path d="M 369 556.305 
L 389 556.305 
" style="fill:none;stroke:#55a868;stroke-linecap:round;stroke-width:1.75;"/>
    </g>
    <g id="line2d_111"/>
    <g id="text_39">
     <!-- Prague -->
     <g style="fill:#262626;" transform="translate(397 559.805)scale(0.1 -0.1)">
      <use xlink:href="#ArialMT-50"/>
      <use x="66.699219" xlink:href="#ArialMT-72"/>
      <use x="100" xlink:href="#ArialMT-61"/>
      <use x="155.615234" xlink:href="#ArialMT-67"/>
      <use x="211.230469" xlink:href="#ArialMT-75"/>
      <use x="266.845703" xlink:href="#ArialMT-65"/>
     </g>
    </g>
    <g id="line2d_112">
     <path d="M 369 570.5675 
L 389 570.5675 
" style="fill:none;stroke:#c44e52;stroke-linecap:round;stroke-width:1.75;"/>
    </g>
    <g id="line2d_113"/>
    <g id="text_40">
     <!-- Rome -->
     <g style="fill:#262626;" transform="translate(397 574.0675)scale(0.1 -0.1)">
      <use xlink:href="#ArialMT-52"/>
      <use x="72.216797" xlink:href="#ArialMT-6f"/>
      <use x="127.832031" xlink:href="#ArialMT-6d"/>
      <use x="211.132812" xlink:href="#ArialMT-65"/>
     </g>
    </g>
    <g id="line2d_114">
     <path d="M 369 584.712812 
L 389 584.712812 
" style="fill:none;stroke:#8172b2;stroke-linecap:round;stroke-width:1.75;"/>
    </g>
    <g id="line2d_115"/>
    <g id="text_41">
     <!-- Stockholm -->
     <defs>
      <path d="M 4.5 23 
L 13.421875 23.78125 
Q 14.0625 18.40625 16.375 14.96875 
Q 18.703125 11.53125 23.578125 9.40625 
Q 28.46875 7.28125 34.578125 7.28125 
Q 39.984375 7.28125 44.140625 8.890625 
Q 48.296875 10.5 50.3125 13.296875 
Q 52.34375 16.109375 52.34375 19.4375 
Q 52.34375 22.796875 50.390625 25.3125 
Q 48.4375 27.828125 43.953125 29.546875 
Q 41.0625 30.671875 31.203125 33.03125 
Q 21.34375 35.40625 17.390625 37.5 
Q 12.25 40.1875 9.734375 44.15625 
Q 7.234375 48.140625 7.234375 53.078125 
Q 7.234375 58.5 10.296875 63.203125 
Q 13.375 67.921875 19.28125 70.359375 
Q 25.203125 72.796875 32.421875 72.796875 
Q 40.375 72.796875 46.453125 70.234375 
Q 52.546875 67.671875 55.8125 62.6875 
Q 59.078125 57.71875 59.328125 51.421875 
L 50.25 50.734375 
Q 49.515625 57.515625 45.28125 60.984375 
Q 41.0625 64.453125 32.8125 64.453125 
Q 24.21875 64.453125 20.28125 61.296875 
Q 16.359375 58.15625 16.359375 53.71875 
Q 16.359375 49.859375 19.140625 47.359375 
Q 21.875 44.875 33.421875 42.265625 
Q 44.96875 39.65625 49.265625 37.703125 
Q 55.515625 34.8125 58.484375 30.390625 
Q 61.46875 25.984375 61.46875 20.21875 
Q 61.46875 14.5 58.203125 9.4375 
Q 54.9375 4.390625 48.796875 1.578125 
Q 42.671875 -1.21875 35.015625 -1.21875 
Q 25.296875 -1.21875 18.71875 1.609375 
Q 12.15625 4.4375 8.421875 10.125 
Q 4.6875 15.828125 4.5 23 
z
" id="ArialMT-53"/>
     </defs>
     <g style="fill:#262626;" transform="translate(397 588.212812)scale(0.1 -0.1)">
      <use xlink:href="#ArialMT-53"/>
      <use x="66.699219" xlink:href="#ArialMT-74"/>
      <use x="94.482422" xlink:href="#ArialMT-6f"/>
      <use x="150.097656" xlink:href="#ArialMT-63"/>
      <use x="200.097656" xlink:href="#ArialMT-6b"/>
      <use x="250.097656" xlink:href="#ArialMT-68"/>
      <use x="305.712891" xlink:href="#ArialMT-6f"/>
      <use x="361.328125" xlink:href="#ArialMT-6c"/>
      <use x="383.544922" xlink:href="#ArialMT-6d"/>
     </g>
    </g>
    <g id="line2d_116">
     <path d="M 369 598.858125 
L 389 598.858125 
" style="fill:none;stroke:#ccb974;stroke-linecap:round;stroke-width:1.75;"/>
    </g>
    <g id="line2d_117"/>
    <g id="text_42">
     <!-- Vienna -->
     <defs>
      <path d="M 28.171875 0 
L 0.4375 71.578125 
L 10.6875 71.578125 
L 29.296875 19.578125 
Q 31.546875 13.328125 33.0625 7.859375 
Q 34.71875 13.71875 36.921875 19.578125 
L 56.25 71.578125 
L 65.921875 71.578125 
L 37.890625 0 
z
" id="ArialMT-56"/>
     </defs>
     <g style="fill:#262626;" transform="translate(397 602.358125)scale(0.1 -0.1)">
      <use xlink:href="#ArialMT-56"/>
      <use x="66.683594" xlink:href="#ArialMT-69"/>
      <use x="88.900391" xlink:href="#ArialMT-65"/>
      <use x="144.515625" xlink:href="#ArialMT-6e"/>
      <use x="200.130859" xlink:href="#ArialMT-6e"/>
      <use x="255.746094" xlink:href="#ArialMT-61"/>
     </g>
    </g>
    <g id="line2d_118">
     <path d="M 369 613.003437 
L 389 613.003437 
" style="fill:none;stroke:#64b5cd;stroke-linecap:round;stroke-width:1.75;"/>
    </g>
    <g id="line2d_119"/>
    <g id="text_43">
     <!-- Warsaw -->
     <defs>
      <path d="M 20.21875 0 
L 1.21875 71.578125 
L 10.9375 71.578125 
L 21.828125 24.65625 
Q 23.578125 17.28125 24.859375 10.015625 
Q 27.59375 21.484375 28.078125 23.25 
L 41.703125 71.578125 
L 53.125 71.578125 
L 63.375 35.359375 
Q 67.234375 21.875 68.953125 10.015625 
Q 70.3125 16.796875 72.515625 25.59375 
L 83.734375 71.578125 
L 93.265625 71.578125 
L 73.640625 0 
L 64.5 0 
L 49.421875 54.546875 
Q 47.515625 61.375 47.171875 62.9375 
Q 46.046875 58.015625 45.0625 54.546875 
L 29.890625 0 
z
" id="ArialMT-57"/>
     </defs>
     <g style="fill:#262626;" transform="translate(397 616.503437)scale(0.1 -0.1)">
      <use xlink:href="#ArialMT-57"/>
      <use x="94.337891" xlink:href="#ArialMT-61"/>
      <use x="149.953125" xlink:href="#ArialMT-72"/>
      <use x="183.253906" xlink:href="#ArialMT-73"/>
      <use x="233.253906" xlink:href="#ArialMT-61"/>
      <use x="288.869141" xlink:href="#ArialMT-77"/>
     </g>
    </g>
    <g id="line2d_120">
     <path d="M 369 627.14875 
L 389 627.14875 
" style="fill:none;stroke:#4c72b0;stroke-linecap:round;stroke-width:1.75;"/>
    </g>
    <g id="line2d_121"/>
    <g id="text_44">
     <!-- Zurich -->
     <defs>
      <path d="M 2 0 
L 2 8.796875 
L 38.671875 54.640625 
Q 42.578125 59.515625 46.09375 63.140625 
L 6.15625 63.140625 
L 6.15625 71.578125 
L 57.421875 71.578125 
L 57.421875 63.140625 
L 17.234375 13.484375 
L 12.890625 8.453125 
L 58.59375 8.453125 
L 58.59375 0 
z
" id="ArialMT-5a"/>
     </defs>
     <g style="fill:#262626;" transform="translate(397 630.64875)scale(0.1 -0.1)">
      <use xlink:href="#ArialMT-5a"/>
      <use x="61.083984" xlink:href="#ArialMT-75"/>
      <use x="116.699219" xlink:href="#ArialMT-72"/>
      <use x="150" xlink:href="#ArialMT-69"/>
      <use x="172.216797" xlink:href="#ArialMT-63"/>
      <use x="222.216797" xlink:href="#ArialMT-68"/>
     </g>
    </g>
   </g>
  </g>
 </g>
 <defs>
  <clipPath id="ped79574fce">
   <rect height="1087.2" width="2232" x="360" y="172.8"/>
  </clipPath>
 </defs>
</svg>
