<?xml version="1.0" encoding="utf-8" standalone="no"?>
<!DOCTYPE svg PUBLIC "-//W3C//DTD SVG 1.1//EN"
  "http://www.w3.org/Graphics/SVG/1.1/DTD/svg11.dtd">
<!-- Created with matplotlib (http://matplotlib.org/) -->
<svg height="1800pt" version="1.1" viewBox="0 0 1800 1800" width="1800pt" xmlns="http://www.w3.org/2000/svg" xmlns:xlink="http://www.w3.org/1999/xlink">
 <defs>
  <style type="text/css">
*{stroke-linecap:butt;stroke-linejoin:round;}
  </style>
 </defs>
 <g id="figure_1">
  <g id="patch_1">
   <path d="M 0 1800 
L 1800 1800 
L 1800 0 
L 0 0 
z
" style="fill:#ffffff;"/>
  </g>
  <g id="axes_1">
   <g id="patch_2">
    <path d="M 1530.595041 871.555304 
C 1530.595041 788.54661 1511.078011 706.630275 1473.545448 632.108341 
C 1436.012886 557.586407 1381.452616 492.420228 1314.062105 441.623212 
L 972.595041 871.555304 
L 1530.595041 871.555304 
z
" style="fill:#1f77b4;"/>
   </g>
   <g id="patch_3">
    <path d="M 1279.708523 413.415819 
C 1224.748211 371.988326 1162.324601 340.924885 1095.656047 321.82702 
C 1028.987493 302.729156 959.239764 295.930816 890.008821 301.782499 
L 938.241459 843.347911 
L 1279.708523 413.415819 
z
" style="fill:#ff7f0e;"/>
   </g>
   <g id="patch_4">
    <path d="M 856.420311 302.430027 
C 812.07749 306.178065 768.353841 315.08133 726.182434 328.949826 
C 684.011027 342.818323 643.693992 361.552691 606.091703 384.753137 
L 904.652949 843.995439 
L 856.420311 302.430027 
z
" style="fill:#2ca02c;"/>
   </g>
   <g id="patch_5">
    <path d="M 584.871227 397.444083 
C 551.682877 417.921147 520.806867 441.755456 492.75719 468.550236 
C 464.707514 495.345016 439.640688 524.950753 417.974003 556.874599 
L 883.432472 856.686385 
L 584.871227 397.444083 
z
" style="fill:#d62728;"/>
   </g>
   <g id="patch_6">
    <path d="M 405.797971 574.173364 
C 387.600338 600.985883 371.879667 629.318042 358.82083 658.836657 
C 345.761994 688.355273 335.416383 718.944177 327.905663 750.243646 
L 871.256439 873.985151 
L 405.797971 574.173364 
z
" style="fill:#9467bd;"/>
   </g>
   <g id="patch_7">
    <path d="M 323.457006 768.381431 
C 316.361688 797.949791 311.821997 828.045405 309.885594 858.352302 
C 307.949192 888.659198 308.622878 919.070941 311.89958 949.268239 
L 866.807781 892.122937 
L 323.457006 768.381431 
z
" style="fill:#8c564b;"/>
   </g>
   <g id="patch_8">
    <path d="M 313.586585 966.321429 
C 316.501305 993.182783 321.467087 1019.795179 328.442651 1045.937397 
C 335.418216 1072.079615 344.384181 1097.679016 355.266016 1122.5228 
L 868.494786 909.176127 
L 313.586585 966.321429 
z
" style="fill:#e377c2;"/>
   </g>
   <g id="patch_9">
    <path d="M 360.986543 1136.093266 
C 369.873197 1156.38195 380.019262 1176.124884 391.368445 1195.212527 
C 402.717628 1214.30017 415.248899 1232.697155 428.892732 1250.301408 
L 874.215313 922.746593 
L 360.986543 1136.093266 
z
" style="fill:#7f7f7f;"/>
   </g>
   <g id="patch_10">
    <path d="M 436.376892 1260.137655 
C 448.037343 1275.182808 460.493281 1289.62686 473.694206 1303.411253 
C 486.895132 1317.195646 500.82318 1330.301725 515.421883 1342.676354 
L 881.699473 932.582841 
L 436.376892 1260.137655 
z
" style="fill:#bcbd22;"/>
   </g>
   <g id="patch_11">
    <path d="M 523.674484 1349.747943 
C 536.76458 1360.843798 550.378821 1371.338799 564.472819 1381.198727 
C 578.566817 1391.058655 593.125238 1400.272783 608.100616 1408.811069 
L 889.952074 939.65443 
L 523.674484 1349.747943 
z
" style="fill:#17becf;"/>
   </g>
   <g id="patch_12">
    <path d="M 616.704483 1413.75756 
C 630.513305 1421.630729 644.66334 1428.921658 659.115356 1435.610132 
C 673.567371 1442.298605 688.307997 1448.378437 703.296364 1453.83277 
L 898.555941 944.600921 
L 616.704483 1413.75756 
z
" style="fill:#1f77b4;"/>
   </g>
   <g id="patch_13">
    <path d="M 711.8694 1456.988699 
C 725.534909 1461.961637 739.395341 1466.410607 753.418746 1470.325353 
C 767.442151 1474.240098 781.617746 1477.617609 795.912854 1480.4501 
L 907.128977 947.75685 
L 711.8694 1456.988699 
z
" style="fill:#ff7f0e;"/>
   </g>
   <g id="patch_14">
    <path d="M 804.291422 1482.124745 
C 817.965451 1484.834172 831.738994 1487.04296 845.582999 1488.74645 
C 859.427004 1490.449939 873.331731 1491.646931 887.26785 1492.334902 
L 915.507545 949.431495 
L 804.291422 1482.124745 
z
" style="fill:#2ca02c;"/>
   </g>
   <g id="patch_15">
    <path d="M 895.550845 1492.748866 
C 909.254255 1493.425348 922.978616 1493.609203 936.695938 1493.300054 
C 950.41326 1492.990904 964.114212 1492.188962 977.77085 1490.895863 
L 923.79054 949.845459 
L 895.550845 1492.748866 
z
" style="fill:#d62728;"/>
   </g>
   <g id="patch_16">
    <path d="M 985.935818 1490.124259 
C 999.522882 1488.837747 1013.056911 1487.065938 1026.510582 1484.812408 
C 1039.964253 1482.558879 1053.328507 1479.825146 1066.576365 1476.61673 
L 931.955507 949.073855 
L 985.935818 1490.124259 
z
" style="fill:#9467bd;"/>
   </g>
   <g id="patch_17">
    <path d="M 1074.218001 1474.788306 
C 1086.448329 1471.826319 1098.572144 1468.461536 1110.568583 1464.699747 
C 1122.565023 1460.937958 1134.427202 1456.781322 1146.13471 1452.236992 
L 939.597144 947.245432 
L 1074.218001 1474.788306 
z
" style="fill:#8c564b;"/>
   </g>
   <g id="patch_18">
    <path d="M 1153.028327 1449.570841 
C 1164.307276 1445.192859 1175.436548 1440.457421 1186.398369 1435.372093 
C 1197.360189 1430.286764 1208.14872 1424.854253 1218.74673 1419.083235 
L 946.490761 944.579281 
L 1153.028327 1449.570841 
z
" style="fill:#e377c2;"/>
   </g>
   <g id="patch_19">
    <path d="M 1224.801943 1415.810525 
C 1234.366835 1410.602079 1243.772168 1405.120289 1253.005703 1399.372285 
C 1262.239239 1393.624282 1271.296973 1387.612559 1280.167119 1381.344939 
L 952.545973 941.306571 
L 1224.801943 1415.810525 
z
" style="fill:#7f7f7f;"/>
   </g>
   <g id="patch_20">
    <path d="M 1285.222399 1377.795713 
C 1293.176002 1372.17572 1300.975847 1366.352053 1308.613776 1360.330806 
C 1316.251705 1354.309558 1323.725052 1348.09283 1331.026 1341.687124 
L 957.601252 937.757346 
L 1285.222399 1377.795713 
z
" style="fill:#bcbd22;"/>
   </g>
   <g id="patch_21">
    <path d="M 1335.377601 1337.871711 
C 1342.58507 1331.548023 1349.622059 1325.042329 1356.481395 1318.361263 
C 1363.340731 1311.680196 1370.020082 1304.826028 1376.512639 1297.805747 
L 961.952854 933.941933 
L 1335.377601 1337.871711 
z
" style="fill:#17becf;"/>
   </g>
   <g id="patch_22">
    <path d="M 1380.279173 1293.747801 
C 1386.322631 1287.213122 1392.202396 1280.53651 1397.913275 1273.723865 
C 1403.624153 1266.91122 1409.164462 1259.964548 1414.529307 1252.889985 
L 965.719389 929.883988 
L 1380.279173 1293.747801 
z
" style="fill:#1f77b4;"/>
   </g>
   <g id="patch_23">
    <path d="M 1417.690147 1248.729784 
C 1422.852893 1241.921729 1427.85171 1234.99713 1432.68251 1227.961654 
C 1437.513309 1220.926177 1442.174773 1213.781741 1446.663088 1206.534191 
L 968.880228 925.723787 
L 1417.690147 1248.729784 
z
" style="fill:#ff7f0e;"/>
   </g>
   <g id="patch_24">
    <path d="M 1449.222647 1202.424195 
C 1453.234418 1195.946149 1457.10693 1189.387218 1460.837651 1182.75169 
C 1464.568373 1176.116162 1468.156491 1169.405482 1471.599661 1162.624036 
L 971.439786 921.61379 
L 1449.222647 1202.424195 
z
" style="fill:#2ca02c;"/>
   </g>
   <g id="patch_25">
    <path d="M 1473.612607 1158.670934 
C 1476.865739 1152.263774 1479.98883 1145.794728 1482.980058 1139.267569 
C 1485.971285 1132.74041 1488.830068 1126.156409 1491.554736 1119.519407 
L 973.452733 917.660688 
L 1473.612607 1158.670934 
z
" style="fill:#d62728;"/>
   </g>
   <g id="patch_26">
    <path d="M 1493.187658 1115.542216 
C 1495.907137 1108.917857 1498.492485 1102.241983 1500.9422 1095.518475 
C 1503.391915 1088.794967 1505.705522 1082.025129 1507.881676 1075.212894 
L 975.085655 913.683498 
L 1493.187658 1115.542216 
z
" style="fill:#9467bd;"/>
   </g>
   <g id="patch_27">
    <path d="M 1509.107176 1071.413182 
C 1510.981532 1065.545695 1512.753626 1059.647668 1514.422694 1053.721643 
C 1516.091761 1047.795619 1517.657562 1041.842449 1519.11942 1035.864701 
L 976.311154 909.883786 
L 1509.107176 1071.413182 
z
" style="fill:#8c564b;"/>
   </g>
   <g id="patch_28">
    <path d="M 1519.961096 1032.446902 
C 1521.286912 1027.025452 1522.527067 1021.58446 1523.681121 1016.125855 
C 1524.835175 1010.667251 1525.902992 1005.19168 1526.884193 999.701083 
L 977.152829 906.465987 
L 1519.961096 1032.446902 
z
" style="fill:#e377c2;"/>
   </g>
   <g id="patch_29">
    <path d="M 1527.469846 996.427528 
C 1528.439061 991.004001 1529.323651 985.566445 1530.123309 980.116741 
C 1530.922967 974.667036 1531.637601 969.205812 1532.266964 963.734959 
L 977.738483 903.192431 
L 1527.469846 996.427528 
z
" style="fill:#7f7f7f;"/>
   </g>
   <g id="patch_30">
    <path d="M 1532.627945 960.647038 
C 1533.183111 955.821162 1533.671872 950.988255 1534.094099 946.149619 
C 1534.516325 941.310983 1534.871978 936.467052 1535.160962 931.619131 
L 978.099464 900.104511 
L 1532.627945 960.647038 
z
" style="fill:#bcbd22;"/>
   </g>
   <g id="patch_31">
    <path d="M 1535.313336 929.272696 
C 1535.490776 926.29601 1535.643073 923.317952 1535.770212 920.338825 
C 1535.897351 917.359697 1535.999327 914.379602 1536.07613 911.39884 
L 978.251837 897.758075 
L 1535.313336 929.272696 
z
" style="fill:#17becf;"/>
   </g>
   <g id="patch_32">
    <path d="M 1536.119899 909.822855 
C 1536.178466 907.549859 1536.222393 905.276528 1536.251679 903.002995 
C 1536.280964 900.729463 1536.295607 898.455774 1536.295607 896.182062 
L 978.295607 896.18209 
L 1536.119899 909.822855 
z
" style="fill:#1f77b4;"/>
   </g>
   <g id="matplotlib.axis_1"/>
   <g id="matplotlib.axis_2">
    <g id="text_1">
     <!-- City -->
     <defs>
      <path d="M 64.40625 67.28125 
L 64.40625 56.890625 
Q 59.421875 61.53125 53.78125 63.8125 
Q 48.140625 66.109375 41.796875 66.109375 
Q 29.296875 66.109375 22.65625 58.46875 
Q 16.015625 50.828125 16.015625 36.375 
Q 16.015625 21.96875 22.65625 14.328125 
Q 29.296875 6.6875 41.796875 6.6875 
Q 48.140625 6.6875 53.78125 8.984375 
Q 59.421875 11.28125 64.40625 15.921875 
L 64.40625 5.609375 
Q 59.234375 2.09375 53.4375 0.328125 
Q 47.65625 -1.421875 41.21875 -1.421875 
Q 24.65625 -1.421875 15.125 8.703125 
Q 5.609375 18.84375 5.609375 36.375 
Q 5.609375 53.953125 15.125 64.078125 
Q 24.65625 74.21875 41.21875 74.21875 
Q 47.75 74.21875 53.53125 72.484375 
Q 59.328125 70.75 64.40625 67.28125 
z
" id="DejaVuSans-43"/>
      <path d="M 9.421875 54.6875 
L 18.40625 54.6875 
L 18.40625 0 
L 9.421875 0 
z
M 9.421875 75.984375 
L 18.40625 75.984375 
L 18.40625 64.59375 
L 9.421875 64.59375 
z
" id="DejaVuSans-69"/>
      <path d="M 18.3125 70.21875 
L 18.3125 54.6875 
L 36.8125 54.6875 
L 36.8125 47.703125 
L 18.3125 47.703125 
L 18.3125 18.015625 
Q 18.3125 11.328125 20.140625 9.421875 
Q 21.96875 7.515625 27.59375 7.515625 
L 36.8125 7.515625 
L 36.8125 0 
L 27.59375 0 
Q 17.1875 0 13.234375 3.875 
Q 9.28125 7.765625 9.28125 18.015625 
L 9.28125 47.703125 
L 2.6875 47.703125 
L 2.6875 54.6875 
L 9.28125 54.6875 
L 9.28125 70.21875 
z
" id="DejaVuSans-74"/>
      <path d="M 32.171875 -5.078125 
Q 28.375 -14.84375 24.75 -17.8125 
Q 21.140625 -20.796875 15.09375 -20.796875 
L 7.90625 -20.796875 
L 7.90625 -13.28125 
L 13.1875 -13.28125 
Q 16.890625 -13.28125 18.9375 -11.515625 
Q 21 -9.765625 23.484375 -3.21875 
L 25.09375 0.875 
L 2.984375 54.6875 
L 12.5 54.6875 
L 29.59375 11.921875 
L 46.6875 54.6875 
L 56.203125 54.6875 
z
" id="DejaVuSans-79"/>
     </defs>
     <g transform="translate(218.920312 905.3)rotate(-90)scale(0.1 -0.1)">
      <use xlink:href="#DejaVuSans-43"/>
      <use x="69.824219" xlink:href="#DejaVuSans-69"/>
      <use x="97.607422" xlink:href="#DejaVuSans-74"/>
      <use x="136.816406" xlink:href="#DejaVuSans-79"/>
     </g>
    </g>
   </g>
   <g id="text_2">
    <!-- London -->
    <defs>
     <path d="M 9.8125 72.90625 
L 19.671875 72.90625 
L 19.671875 8.296875 
L 55.171875 8.296875 
L 55.171875 0 
L 9.8125 0 
z
" id="DejaVuSans-4c"/>
     <path d="M 30.609375 48.390625 
Q 23.390625 48.390625 19.1875 42.75 
Q 14.984375 37.109375 14.984375 27.296875 
Q 14.984375 17.484375 19.15625 11.84375 
Q 23.34375 6.203125 30.609375 6.203125 
Q 37.796875 6.203125 41.984375 11.859375 
Q 46.1875 17.53125 46.1875 27.296875 
Q 46.1875 37.015625 41.984375 42.703125 
Q 37.796875 48.390625 30.609375 48.390625 
z
M 30.609375 56 
Q 42.328125 56 49.015625 48.375 
Q 55.71875 40.765625 55.71875 27.296875 
Q 55.71875 13.875 49.015625 6.21875 
Q 42.328125 -1.421875 30.609375 -1.421875 
Q 18.84375 -1.421875 12.171875 6.21875 
Q 5.515625 13.875 5.515625 27.296875 
Q 5.515625 40.765625 12.171875 48.375 
Q 18.84375 56 30.609375 56 
z
" id="DejaVuSans-6f"/>
     <path d="M 54.890625 33.015625 
L 54.890625 0 
L 45.90625 0 
L 45.90625 32.71875 
Q 45.90625 40.484375 42.875 44.328125 
Q 39.84375 48.1875 33.796875 48.1875 
Q 26.515625 48.1875 22.3125 43.546875 
Q 18.109375 38.921875 18.109375 30.90625 
L 18.109375 0 
L 9.078125 0 
L 9.078125 54.6875 
L 18.109375 54.6875 
L 18.109375 46.1875 
Q 21.34375 51.125 25.703125 53.5625 
Q 30.078125 56 35.796875 56 
Q 45.21875 56 50.046875 50.171875 
Q 54.890625 44.34375 54.890625 33.015625 
z
" id="DejaVuSans-6e"/>
     <path d="M 45.40625 46.390625 
L 45.40625 75.984375 
L 54.390625 75.984375 
L 54.390625 0 
L 45.40625 0 
L 45.40625 8.203125 
Q 42.578125 3.328125 38.25 0.953125 
Q 33.9375 -1.421875 27.875 -1.421875 
Q 17.96875 -1.421875 11.734375 6.484375 
Q 5.515625 14.40625 5.515625 27.296875 
Q 5.515625 40.1875 11.734375 48.09375 
Q 17.96875 56 27.875 56 
Q 33.9375 56 38.25 53.625 
Q 42.578125 51.265625 45.40625 46.390625 
z
M 14.796875 27.296875 
Q 14.796875 17.390625 18.875 11.75 
Q 22.953125 6.109375 30.078125 6.109375 
Q 37.203125 6.109375 41.296875 11.75 
Q 45.40625 17.390625 45.40625 27.296875 
Q 45.40625 37.203125 41.296875 42.84375 
Q 37.203125 48.484375 30.078125 48.484375 
Q 22.953125 48.484375 18.875 42.84375 
Q 14.796875 37.203125 14.796875 27.296875 
z
" id="DejaVuSans-64"/>
    </defs>
    <g transform="translate(1523.640489 613.682394)scale(0.2 -0.2)">
     <use xlink:href="#DejaVuSans-4c"/>
     <use x="55.697266" xlink:href="#DejaVuSans-6f"/>
     <use x="116.878906" xlink:href="#DejaVuSans-6e"/>
     <use x="180.257812" xlink:href="#DejaVuSans-64"/>
     <use x="243.734375" xlink:href="#DejaVuSans-6f"/>
     <use x="304.916016" xlink:href="#DejaVuSans-6e"/>
    </g>
   </g>
   <g id="text_3">
    <!-- 18212 -->
    <defs>
     <path d="M 12.40625 8.296875 
L 28.515625 8.296875 
L 28.515625 63.921875 
L 10.984375 60.40625 
L 10.984375 69.390625 
L 28.421875 72.90625 
L 38.28125 72.90625 
L 38.28125 8.296875 
L 54.390625 8.296875 
L 54.390625 0 
L 12.40625 0 
z
" id="DejaVuSans-31"/>
     <path d="M 31.78125 34.625 
Q 24.75 34.625 20.71875 30.859375 
Q 16.703125 27.09375 16.703125 20.515625 
Q 16.703125 13.921875 20.71875 10.15625 
Q 24.75 6.390625 31.78125 6.390625 
Q 38.8125 6.390625 42.859375 10.171875 
Q 46.921875 13.96875 46.921875 20.515625 
Q 46.921875 27.09375 42.890625 30.859375 
Q 38.875 34.625 31.78125 34.625 
z
M 21.921875 38.8125 
Q 15.578125 40.375 12.03125 44.71875 
Q 8.5 49.078125 8.5 55.328125 
Q 8.5 64.0625 14.71875 69.140625 
Q 20.953125 74.21875 31.78125 74.21875 
Q 42.671875 74.21875 48.875 69.140625 
Q 55.078125 64.0625 55.078125 55.328125 
Q 55.078125 49.078125 51.53125 44.71875 
Q 48 40.375 41.703125 38.8125 
Q 48.828125 37.15625 52.796875 32.3125 
Q 56.78125 27.484375 56.78125 20.515625 
Q 56.78125 9.90625 50.3125 4.234375 
Q 43.84375 -1.421875 31.78125 -1.421875 
Q 19.734375 -1.421875 13.25 4.234375 
Q 6.78125 9.90625 6.78125 20.515625 
Q 6.78125 27.484375 10.78125 32.3125 
Q 14.796875 37.15625 21.921875 38.8125 
z
M 18.3125 54.390625 
Q 18.3125 48.734375 21.84375 45.5625 
Q 25.390625 42.390625 31.78125 42.390625 
Q 38.140625 42.390625 41.71875 45.5625 
Q 45.3125 48.734375 45.3125 54.390625 
Q 45.3125 60.0625 41.71875 63.234375 
Q 38.140625 66.40625 31.78125 66.40625 
Q 25.390625 66.40625 21.84375 63.234375 
Q 18.3125 60.0625 18.3125 54.390625 
z
" id="DejaVuSans-38"/>
     <path d="M 19.1875 8.296875 
L 53.609375 8.296875 
L 53.609375 0 
L 7.328125 0 
L 7.328125 8.296875 
Q 12.9375 14.109375 22.625 23.890625 
Q 32.328125 33.6875 34.8125 36.53125 
Q 39.546875 41.84375 41.421875 45.53125 
Q 43.3125 49.21875 43.3125 52.78125 
Q 43.3125 58.59375 39.234375 62.25 
Q 35.15625 65.921875 28.609375 65.921875 
Q 23.96875 65.921875 18.8125 64.3125 
Q 13.671875 62.703125 7.8125 59.421875 
L 7.8125 69.390625 
Q 13.765625 71.78125 18.9375 73 
Q 24.125 74.21875 28.421875 74.21875 
Q 39.75 74.21875 46.484375 68.546875 
Q 53.21875 62.890625 53.21875 53.421875 
Q 53.21875 48.921875 51.53125 44.890625 
Q 49.859375 40.875 45.40625 35.40625 
Q 44.1875 33.984375 37.640625 27.21875 
Q 31.109375 20.453125 19.1875 8.296875 
z
" id="DejaVuSans-32"/>
    </defs>
    <g transform="translate(1241.352785 733.405876)scale(0.2 -0.2)">
     <use xlink:href="#DejaVuSans-31"/>
     <use x="63.623047" xlink:href="#DejaVuSans-38"/>
     <use x="127.246094" xlink:href="#DejaVuSans-32"/>
     <use x="190.869141" xlink:href="#DejaVuSans-31"/>
     <use x="254.492188" xlink:href="#DejaVuSans-32"/>
    </g>
   </g>
   <g id="text_4">
    <!-- Paris -->
    <defs>
     <path d="M 19.671875 64.796875 
L 19.671875 37.40625 
L 32.078125 37.40625 
Q 38.96875 37.40625 42.71875 40.96875 
Q 46.484375 44.53125 46.484375 51.125 
Q 46.484375 57.671875 42.71875 61.234375 
Q 38.96875 64.796875 32.078125 64.796875 
z
M 9.8125 72.90625 
L 32.078125 72.90625 
Q 44.34375 72.90625 50.609375 67.359375 
Q 56.890625 61.8125 56.890625 51.125 
Q 56.890625 40.328125 50.609375 34.8125 
Q 44.34375 29.296875 32.078125 29.296875 
L 19.671875 29.296875 
L 19.671875 0 
L 9.8125 0 
z
" id="DejaVuSans-50"/>
     <path d="M 34.28125 27.484375 
Q 23.390625 27.484375 19.1875 25 
Q 14.984375 22.515625 14.984375 16.5 
Q 14.984375 11.71875 18.140625 8.90625 
Q 21.296875 6.109375 26.703125 6.109375 
Q 34.1875 6.109375 38.703125 11.40625 
Q 43.21875 16.703125 43.21875 25.484375 
L 43.21875 27.484375 
z
M 52.203125 31.203125 
L 52.203125 0 
L 43.21875 0 
L 43.21875 8.296875 
Q 40.140625 3.328125 35.546875 0.953125 
Q 30.953125 -1.421875 24.3125 -1.421875 
Q 15.921875 -1.421875 10.953125 3.296875 
Q 6 8.015625 6 15.921875 
Q 6 25.140625 12.171875 29.828125 
Q 18.359375 34.515625 30.609375 34.515625 
L 43.21875 34.515625 
L 43.21875 35.40625 
Q 43.21875 41.609375 39.140625 45 
Q 35.0625 48.390625 27.6875 48.390625 
Q 23 48.390625 18.546875 47.265625 
Q 14.109375 46.140625 10.015625 43.890625 
L 10.015625 52.203125 
Q 14.9375 54.109375 19.578125 55.046875 
Q 24.21875 56 28.609375 56 
Q 40.484375 56 46.34375 49.84375 
Q 52.203125 43.703125 52.203125 31.203125 
z
" id="DejaVuSans-61"/>
     <path d="M 41.109375 46.296875 
Q 39.59375 47.171875 37.8125 47.578125 
Q 36.03125 48 33.890625 48 
Q 26.265625 48 22.1875 43.046875 
Q 18.109375 38.09375 18.109375 28.8125 
L 18.109375 0 
L 9.078125 0 
L 9.078125 54.6875 
L 18.109375 54.6875 
L 18.109375 46.1875 
Q 20.953125 51.171875 25.484375 53.578125 
Q 30.03125 56 36.53125 56 
Q 37.453125 56 38.578125 55.875 
Q 39.703125 55.765625 41.0625 55.515625 
z
" id="DejaVuSans-72"/>
     <path d="M 44.28125 53.078125 
L 44.28125 44.578125 
Q 40.484375 46.53125 36.375 47.5 
Q 32.28125 48.484375 27.875 48.484375 
Q 21.1875 48.484375 17.84375 46.4375 
Q 14.5 44.390625 14.5 40.28125 
Q 14.5 37.15625 16.890625 35.375 
Q 19.28125 33.59375 26.515625 31.984375 
L 29.59375 31.296875 
Q 39.15625 29.25 43.1875 25.515625 
Q 47.21875 21.78125 47.21875 15.09375 
Q 47.21875 7.46875 41.1875 3.015625 
Q 35.15625 -1.421875 24.609375 -1.421875 
Q 20.21875 -1.421875 15.453125 -0.5625 
Q 10.6875 0.296875 5.421875 2 
L 5.421875 11.28125 
Q 10.40625 8.6875 15.234375 7.390625 
Q 20.0625 6.109375 24.8125 6.109375 
Q 31.15625 6.109375 34.5625 8.28125 
Q 37.984375 10.453125 37.984375 14.40625 
Q 37.984375 18.0625 35.515625 20.015625 
Q 33.0625 21.96875 24.703125 23.78125 
L 21.578125 24.515625 
Q 13.234375 26.265625 9.515625 29.90625 
Q 5.8125 33.546875 5.8125 39.890625 
Q 5.8125 47.609375 11.28125 51.796875 
Q 16.75 56 26.8125 56 
Q 31.78125 56 36.171875 55.265625 
Q 40.578125 54.546875 44.28125 53.078125 
z
" id="DejaVuSans-73"/>
    </defs>
    <g transform="translate(1111.397506 275.193681)scale(0.2 -0.2)">
     <use xlink:href="#DejaVuSans-50"/>
     <use x="60.240234" xlink:href="#DejaVuSans-61"/>
     <use x="121.519531" xlink:href="#DejaVuSans-72"/>
     <use x="162.632812" xlink:href="#DejaVuSans-69"/>
     <use x="190.416016" xlink:href="#DejaVuSans-73"/>
    </g>
   </g>
   <g id="text_5">
    <!-- 14874 -->
    <defs>
     <path d="M 37.796875 64.3125 
L 12.890625 25.390625 
L 37.796875 25.390625 
z
M 35.203125 72.90625 
L 47.609375 72.90625 
L 47.609375 25.390625 
L 58.015625 25.390625 
L 58.015625 17.1875 
L 47.609375 17.1875 
L 47.609375 0 
L 37.796875 0 
L 37.796875 17.1875 
L 4.890625 17.1875 
L 4.890625 26.703125 
z
" id="DejaVuSans-34"/>
     <path d="M 8.203125 72.90625 
L 55.078125 72.90625 
L 55.078125 68.703125 
L 28.609375 0 
L 18.3125 0 
L 43.21875 64.59375 
L 8.203125 64.59375 
z
" id="DejaVuSans-37"/>
    </defs>
    <g transform="translate(1000.877712 535.954127)scale(0.2 -0.2)">
     <use xlink:href="#DejaVuSans-31"/>
     <use x="63.623047" xlink:href="#DejaVuSans-34"/>
     <use x="127.246094" xlink:href="#DejaVuSans-38"/>
     <use x="190.869141" xlink:href="#DejaVuSans-37"/>
     <use x="254.492188" xlink:href="#DejaVuSans-34"/>
    </g>
   </g>
   <g id="text_6">
    <!-- Madrid -->
    <defs>
     <path d="M 9.8125 72.90625 
L 24.515625 72.90625 
L 43.109375 23.296875 
L 61.8125 72.90625 
L 76.515625 72.90625 
L 76.515625 0 
L 66.890625 0 
L 66.890625 64.015625 
L 48.09375 14.015625 
L 38.1875 14.015625 
L 19.390625 64.015625 
L 19.390625 0 
L 9.8125 0 
z
" id="DejaVuSans-4d"/>
    </defs>
    <g transform="translate(639.651007 282.964015)scale(0.2 -0.2)">
     <use xlink:href="#DejaVuSans-4d"/>
     <use x="86.279297" xlink:href="#DejaVuSans-61"/>
     <use x="147.558594" xlink:href="#DejaVuSans-64"/>
     <use x="211.035156" xlink:href="#DejaVuSans-72"/>
     <use x="252.148438" xlink:href="#DejaVuSans-69"/>
     <use x="279.931641" xlink:href="#DejaVuSans-64"/>
    </g>
   </g>
   <g id="text_7">
    <!-- 9542 -->
    <defs>
     <path d="M 10.984375 1.515625 
L 10.984375 10.5 
Q 14.703125 8.734375 18.5 7.8125 
Q 22.3125 6.890625 25.984375 6.890625 
Q 35.75 6.890625 40.890625 13.453125 
Q 46.046875 20.015625 46.78125 33.40625 
Q 43.953125 29.203125 39.59375 26.953125 
Q 35.25 24.703125 29.984375 24.703125 
Q 19.046875 24.703125 12.671875 31.3125 
Q 6.296875 37.9375 6.296875 49.421875 
Q 6.296875 60.640625 12.9375 67.421875 
Q 19.578125 74.21875 30.609375 74.21875 
Q 43.265625 74.21875 49.921875 64.515625 
Q 56.59375 54.828125 56.59375 36.375 
Q 56.59375 19.140625 48.40625 8.859375 
Q 40.234375 -1.421875 26.421875 -1.421875 
Q 22.703125 -1.421875 18.890625 -0.6875 
Q 15.09375 0.046875 10.984375 1.515625 
z
M 30.609375 32.421875 
Q 37.25 32.421875 41.125 36.953125 
Q 45.015625 41.5 45.015625 49.421875 
Q 45.015625 57.28125 41.125 61.84375 
Q 37.25 66.40625 30.609375 66.40625 
Q 23.96875 66.40625 20.09375 61.84375 
Q 16.21875 57.28125 16.21875 49.421875 
Q 16.21875 41.5 20.09375 36.953125 
Q 23.96875 32.421875 30.609375 32.421875 
z
" id="DejaVuSans-39"/>
     <path d="M 10.796875 72.90625 
L 49.515625 72.90625 
L 49.515625 64.59375 
L 19.828125 64.59375 
L 19.828125 46.734375 
Q 21.96875 47.46875 24.109375 47.828125 
Q 26.265625 48.1875 28.421875 48.1875 
Q 40.625 48.1875 47.75 41.5 
Q 54.890625 34.8125 54.890625 23.390625 
Q 54.890625 11.625 47.5625 5.09375 
Q 40.234375 -1.421875 26.90625 -1.421875 
Q 22.3125 -1.421875 17.546875 -0.640625 
Q 12.796875 0.140625 7.71875 1.703125 
L 7.71875 11.625 
Q 12.109375 9.234375 16.796875 8.0625 
Q 21.484375 6.890625 26.703125 6.890625 
Q 35.15625 6.890625 40.078125 11.328125 
Q 45.015625 15.765625 45.015625 23.390625 
Q 45.015625 31 40.078125 35.4375 
Q 35.15625 39.890625 26.703125 39.890625 
Q 22.75 39.890625 18.8125 39.015625 
Q 14.890625 38.140625 10.796875 36.28125 
z
" id="DejaVuSans-35"/>
    </defs>
    <g transform="translate(772.12064 540.486821)scale(0.2 -0.2)">
     <use xlink:href="#DejaVuSans-39"/>
     <use x="63.623047" xlink:href="#DejaVuSans-35"/>
     <use x="127.246094" xlink:href="#DejaVuSans-34"/>
     <use x="190.869141" xlink:href="#DejaVuSans-32"/>
    </g>
   </g>
   <g id="text_8">
    <!-- Barcelona -->
    <defs>
     <path d="M 19.671875 34.8125 
L 19.671875 8.109375 
L 35.5 8.109375 
Q 43.453125 8.109375 47.28125 11.40625 
Q 51.125 14.703125 51.125 21.484375 
Q 51.125 28.328125 47.28125 31.5625 
Q 43.453125 34.8125 35.5 34.8125 
z
M 19.671875 64.796875 
L 19.671875 42.828125 
L 34.28125 42.828125 
Q 41.5 42.828125 45.03125 45.53125 
Q 48.578125 48.25 48.578125 53.8125 
Q 48.578125 59.328125 45.03125 62.0625 
Q 41.5 64.796875 34.28125 64.796875 
z
M 9.8125 72.90625 
L 35.015625 72.90625 
Q 46.296875 72.90625 52.390625 68.21875 
Q 58.5 63.53125 58.5 54.890625 
Q 58.5 48.1875 55.375 44.234375 
Q 52.25 40.28125 46.1875 39.3125 
Q 53.46875 37.75 57.5 32.78125 
Q 61.53125 27.828125 61.53125 20.40625 
Q 61.53125 10.640625 54.890625 5.3125 
Q 48.25 0 35.984375 0 
L 9.8125 0 
z
" id="DejaVuSans-42"/>
     <path d="M 48.78125 52.59375 
L 48.78125 44.1875 
Q 44.96875 46.296875 41.140625 47.34375 
Q 37.3125 48.390625 33.40625 48.390625 
Q 24.65625 48.390625 19.8125 42.84375 
Q 14.984375 37.3125 14.984375 27.296875 
Q 14.984375 17.28125 19.8125 11.734375 
Q 24.65625 6.203125 33.40625 6.203125 
Q 37.3125 6.203125 41.140625 7.25 
Q 44.96875 8.296875 48.78125 10.40625 
L 48.78125 2.09375 
Q 45.015625 0.34375 40.984375 -0.53125 
Q 36.96875 -1.421875 32.421875 -1.421875 
Q 20.0625 -1.421875 12.78125 6.34375 
Q 5.515625 14.109375 5.515625 27.296875 
Q 5.515625 40.671875 12.859375 48.328125 
Q 20.21875 56 33.015625 56 
Q 37.15625 56 41.109375 55.140625 
Q 45.0625 54.296875 48.78125 52.59375 
z
" id="DejaVuSans-63"/>
     <path d="M 56.203125 29.59375 
L 56.203125 25.203125 
L 14.890625 25.203125 
Q 15.484375 15.921875 20.484375 11.0625 
Q 25.484375 6.203125 34.421875 6.203125 
Q 39.59375 6.203125 44.453125 7.46875 
Q 49.3125 8.734375 54.109375 11.28125 
L 54.109375 2.78125 
Q 49.265625 0.734375 44.1875 -0.34375 
Q 39.109375 -1.421875 33.890625 -1.421875 
Q 20.796875 -1.421875 13.15625 6.1875 
Q 5.515625 13.8125 5.515625 26.8125 
Q 5.515625 40.234375 12.765625 48.109375 
Q 20.015625 56 32.328125 56 
Q 43.359375 56 49.78125 48.890625 
Q 56.203125 41.796875 56.203125 29.59375 
z
M 47.21875 32.234375 
Q 47.125 39.59375 43.09375 43.984375 
Q 39.0625 48.390625 32.421875 48.390625 
Q 24.90625 48.390625 20.390625 44.140625 
Q 15.875 39.890625 15.1875 32.171875 
z
" id="DejaVuSans-65"/>
     <path d="M 9.421875 75.984375 
L 18.40625 75.984375 
L 18.40625 0 
L 9.421875 0 
z
" id="DejaVuSans-6c"/>
    </defs>
    <g transform="translate(353.467787 435.255371)scale(0.2 -0.2)">
     <use xlink:href="#DejaVuSans-42"/>
     <use x="68.603516" xlink:href="#DejaVuSans-61"/>
     <use x="129.882812" xlink:href="#DejaVuSans-72"/>
     <use x="170.964844" xlink:href="#DejaVuSans-63"/>
     <use x="225.945312" xlink:href="#DejaVuSans-65"/>
     <use x="287.46875" xlink:href="#DejaVuSans-6c"/>
     <use x="315.251953" xlink:href="#DejaVuSans-6f"/>
     <use x="376.433594" xlink:href="#DejaVuSans-6e"/>
     <use x="439.8125" xlink:href="#DejaVuSans-61"/>
    </g>
   </g>
   <g id="text_9">
    <!-- 8425 -->
    <g transform="translate(623.577303 629.323445)scale(0.2 -0.2)">
     <use xlink:href="#DejaVuSans-38"/>
     <use x="63.623047" xlink:href="#DejaVuSans-34"/>
     <use x="127.246094" xlink:href="#DejaVuSans-32"/>
     <use x="190.869141" xlink:href="#DejaVuSans-35"/>
    </g>
   </g>
   <g id="text_10">
    <!-- Berlin -->
    <g transform="translate(249.539769 642.840558)scale(0.2 -0.2)">
     <use xlink:href="#DejaVuSans-42"/>
     <use x="68.603516" xlink:href="#DejaVuSans-65"/>
     <use x="130.126953" xlink:href="#DejaVuSans-72"/>
     <use x="171.240234" xlink:href="#DejaVuSans-6c"/>
     <use x="199.023438" xlink:href="#DejaVuSans-69"/>
     <use x="226.806641" xlink:href="#DejaVuSans-6e"/>
    </g>
   </g>
   <g id="text_11">
    <!-- 7078 -->
    <defs>
     <path d="M 31.78125 66.40625 
Q 24.171875 66.40625 20.328125 58.90625 
Q 16.5 51.421875 16.5 36.375 
Q 16.5 21.390625 20.328125 13.890625 
Q 24.171875 6.390625 31.78125 6.390625 
Q 39.453125 6.390625 43.28125 13.890625 
Q 47.125 21.390625 47.125 36.375 
Q 47.125 51.421875 43.28125 58.90625 
Q 39.453125 66.40625 31.78125 66.40625 
z
M 31.78125 74.21875 
Q 44.046875 74.21875 50.515625 64.515625 
Q 56.984375 54.828125 56.984375 36.375 
Q 56.984375 17.96875 50.515625 8.265625 
Q 44.046875 -1.421875 31.78125 -1.421875 
Q 19.53125 -1.421875 13.0625 8.265625 
Q 6.59375 17.96875 6.59375 36.375 
Q 6.59375 54.828125 13.0625 64.515625 
Q 19.53125 74.21875 31.78125 74.21875 
z
" id="DejaVuSans-30"/>
    </defs>
    <g transform="translate(538.345074 750.414805)scale(0.2 -0.2)">
     <use xlink:href="#DejaVuSans-37"/>
     <use x="63.623047" xlink:href="#DejaVuSans-30"/>
     <use x="127.246094" xlink:href="#DejaVuSans-37"/>
     <use x="190.869141" xlink:href="#DejaVuSans-38"/>
    </g>
   </g>
   <g id="text_12">
    <!-- Milan -->
    <g transform="translate(200.893376 860.493988)scale(0.2 -0.2)">
     <use xlink:href="#DejaVuSans-4d"/>
     <use x="86.279297" xlink:href="#DejaVuSans-69"/>
     <use x="114.0625" xlink:href="#DejaVuSans-6c"/>
     <use x="141.845703" xlink:href="#DejaVuSans-61"/>
     <use x="203.125" xlink:href="#DejaVuSans-6e"/>
    </g>
   </g>
   <g id="text_13">
    <!-- 6686 -->
    <defs>
     <path d="M 33.015625 40.375 
Q 26.375 40.375 22.484375 35.828125 
Q 18.609375 31.296875 18.609375 23.390625 
Q 18.609375 15.53125 22.484375 10.953125 
Q 26.375 6.390625 33.015625 6.390625 
Q 39.65625 6.390625 43.53125 10.953125 
Q 47.40625 15.53125 47.40625 23.390625 
Q 47.40625 31.296875 43.53125 35.828125 
Q 39.65625 40.375 33.015625 40.375 
z
M 52.59375 71.296875 
L 52.59375 62.3125 
Q 48.875 64.0625 45.09375 64.984375 
Q 41.3125 65.921875 37.59375 65.921875 
Q 27.828125 65.921875 22.671875 59.328125 
Q 17.53125 52.734375 16.796875 39.40625 
Q 19.671875 43.65625 24.015625 45.921875 
Q 28.375 48.1875 33.59375 48.1875 
Q 44.578125 48.1875 50.953125 41.515625 
Q 57.328125 34.859375 57.328125 23.390625 
Q 57.328125 12.15625 50.6875 5.359375 
Q 44.046875 -1.421875 33.015625 -1.421875 
Q 20.359375 -1.421875 13.671875 8.265625 
Q 6.984375 17.96875 6.984375 36.375 
Q 6.984375 53.65625 15.1875 63.9375 
Q 23.390625 74.21875 37.203125 74.21875 
Q 40.921875 74.21875 44.703125 73.484375 
Q 48.484375 72.75 52.59375 71.296875 
z
" id="DejaVuSans-36"/>
    </defs>
    <g transform="translate(507.204469 877.379306)scale(0.2 -0.2)">
     <use xlink:href="#DejaVuSans-36"/>
     <use x="63.623047" xlink:href="#DejaVuSans-36"/>
     <use x="127.246094" xlink:href="#DejaVuSans-38"/>
     <use x="190.869141" xlink:href="#DejaVuSans-36"/>
    </g>
   </g>
   <g id="text_14">
    <!-- Rome -->
    <defs>
     <path d="M 44.390625 34.1875 
Q 47.5625 33.109375 50.5625 29.59375 
Q 53.5625 26.078125 56.59375 19.921875 
L 66.609375 0 
L 56 0 
L 46.6875 18.703125 
Q 43.0625 26.03125 39.671875 28.421875 
Q 36.28125 30.8125 30.421875 30.8125 
L 19.671875 30.8125 
L 19.671875 0 
L 9.8125 0 
L 9.8125 72.90625 
L 32.078125 72.90625 
Q 44.578125 72.90625 50.734375 67.671875 
Q 56.890625 62.453125 56.890625 51.90625 
Q 56.890625 45.015625 53.6875 40.46875 
Q 50.484375 35.9375 44.390625 34.1875 
z
M 19.671875 64.796875 
L 19.671875 38.921875 
L 32.078125 38.921875 
Q 39.203125 38.921875 42.84375 42.21875 
Q 46.484375 45.515625 46.484375 51.90625 
Q 46.484375 58.296875 42.84375 61.546875 
Q 39.203125 64.796875 32.078125 64.796875 
z
" id="DejaVuSans-52"/>
     <path d="M 52 44.1875 
Q 55.375 50.25 60.0625 53.125 
Q 64.75 56 71.09375 56 
Q 79.640625 56 84.28125 50.015625 
Q 88.921875 44.046875 88.921875 33.015625 
L 88.921875 0 
L 79.890625 0 
L 79.890625 32.71875 
Q 79.890625 40.578125 77.09375 44.375 
Q 74.3125 48.1875 68.609375 48.1875 
Q 61.625 48.1875 57.5625 43.546875 
Q 53.515625 38.921875 53.515625 30.90625 
L 53.515625 0 
L 44.484375 0 
L 44.484375 32.71875 
Q 44.484375 40.625 41.703125 44.40625 
Q 38.921875 48.1875 33.109375 48.1875 
Q 26.21875 48.1875 22.15625 43.53125 
Q 18.109375 38.875 18.109375 30.90625 
L 18.109375 0 
L 9.078125 0 
L 9.078125 54.6875 
L 18.109375 54.6875 
L 18.109375 46.1875 
Q 21.1875 51.21875 25.484375 53.609375 
Q 29.78125 56 35.6875 56 
Q 41.65625 56 45.828125 52.96875 
Q 50 49.953125 52 44.1875 
z
" id="DejaVuSans-6d"/>
    </defs>
    <g transform="translate(216.528063 1065.132274)scale(0.2 -0.2)">
     <use xlink:href="#DejaVuSans-52"/>
     <use x="69.419922" xlink:href="#DejaVuSans-6f"/>
     <use x="130.601562" xlink:href="#DejaVuSans-6d"/>
     <use x="228.013672" xlink:href="#DejaVuSans-65"/>
    </g>
   </g>
   <g id="text_15">
    <!-- 5948 -->
    <g transform="translate(519.013505 996.751639)scale(0.2 -0.2)">
     <use xlink:href="#DejaVuSans-35"/>
     <use x="63.623047" xlink:href="#DejaVuSans-39"/>
     <use x="127.246094" xlink:href="#DejaVuSans-34"/>
     <use x="190.869141" xlink:href="#DejaVuSans-38"/>
    </g>
   </g>
   <g id="text_16">
    <!-- Prague -->
    <defs>
     <path d="M 45.40625 27.984375 
Q 45.40625 37.75 41.375 43.109375 
Q 37.359375 48.484375 30.078125 48.484375 
Q 22.859375 48.484375 18.828125 43.109375 
Q 14.796875 37.75 14.796875 27.984375 
Q 14.796875 18.265625 18.828125 12.890625 
Q 22.859375 7.515625 30.078125 7.515625 
Q 37.359375 7.515625 41.375 12.890625 
Q 45.40625 18.265625 45.40625 27.984375 
z
M 54.390625 6.78125 
Q 54.390625 -7.171875 48.1875 -13.984375 
Q 42 -20.796875 29.203125 -20.796875 
Q 24.46875 -20.796875 20.265625 -20.09375 
Q 16.0625 -19.390625 12.109375 -17.921875 
L 12.109375 -9.1875 
Q 16.0625 -11.328125 19.921875 -12.34375 
Q 23.78125 -13.375 27.78125 -13.375 
Q 36.625 -13.375 41.015625 -8.765625 
Q 45.40625 -4.15625 45.40625 5.171875 
L 45.40625 9.625 
Q 42.625 4.78125 38.28125 2.390625 
Q 33.9375 0 27.875 0 
Q 17.828125 0 11.671875 7.65625 
Q 5.515625 15.328125 5.515625 27.984375 
Q 5.515625 40.671875 11.671875 48.328125 
Q 17.828125 56 27.875 56 
Q 33.9375 56 38.28125 53.609375 
Q 42.625 51.21875 45.40625 46.390625 
L 45.40625 54.6875 
L 54.390625 54.6875 
z
" id="DejaVuSans-67"/>
     <path d="M 8.5 21.578125 
L 8.5 54.6875 
L 17.484375 54.6875 
L 17.484375 21.921875 
Q 17.484375 14.15625 20.5 10.265625 
Q 23.53125 6.390625 29.59375 6.390625 
Q 36.859375 6.390625 41.078125 11.03125 
Q 45.3125 15.671875 45.3125 23.6875 
L 45.3125 54.6875 
L 54.296875 54.6875 
L 54.296875 0 
L 45.3125 0 
L 45.3125 8.40625 
Q 42.046875 3.421875 37.71875 1 
Q 33.40625 -1.421875 27.6875 -1.421875 
Q 18.265625 -1.421875 13.375 4.4375 
Q 8.5 10.296875 8.5 21.578125 
z
M 31.109375 56 
z
" id="DejaVuSans-75"/>
    </defs>
    <g transform="translate(272.871258 1227.977871)scale(0.2 -0.2)">
     <use xlink:href="#DejaVuSans-50"/>
     <use x="60.287109" xlink:href="#DejaVuSans-72"/>
     <use x="101.400391" xlink:href="#DejaVuSans-61"/>
     <use x="162.679688" xlink:href="#DejaVuSans-67"/>
     <use x="226.15625" xlink:href="#DejaVuSans-75"/>
     <use x="289.535156" xlink:href="#DejaVuSans-65"/>
    </g>
   </g>
   <g id="text_17">
    <!-- 4858 -->
    <g transform="translate(559.057192 1091.744904)scale(0.2 -0.2)">
     <use xlink:href="#DejaVuSans-34"/>
     <use x="63.623047" xlink:href="#DejaVuSans-38"/>
     <use x="127.246094" xlink:href="#DejaVuSans-35"/>
     <use x="190.869141" xlink:href="#DejaVuSans-38"/>
    </g>
   </g>
   <g id="text_18">
    <!-- Lisbon -->
    <defs>
     <path d="M 48.6875 27.296875 
Q 48.6875 37.203125 44.609375 42.84375 
Q 40.53125 48.484375 33.40625 48.484375 
Q 26.265625 48.484375 22.1875 42.84375 
Q 18.109375 37.203125 18.109375 27.296875 
Q 18.109375 17.390625 22.1875 11.75 
Q 26.265625 6.109375 33.40625 6.109375 
Q 40.53125 6.109375 44.609375 11.75 
Q 48.6875 17.390625 48.6875 27.296875 
z
M 18.109375 46.390625 
Q 20.953125 51.265625 25.265625 53.625 
Q 29.59375 56 35.59375 56 
Q 45.5625 56 51.78125 48.09375 
Q 58.015625 40.1875 58.015625 27.296875 
Q 58.015625 14.40625 51.78125 6.484375 
Q 45.5625 -1.421875 35.59375 -1.421875 
Q 29.59375 -1.421875 25.265625 0.953125 
Q 20.953125 3.328125 18.109375 8.203125 
L 18.109375 0 
L 9.078125 0 
L 9.078125 75.984375 
L 18.109375 75.984375 
z
" id="DejaVuSans-62"/>
    </defs>
    <g transform="translate(368.165555 1346.012844)scale(0.2 -0.2)">
     <use xlink:href="#DejaVuSans-4c"/>
     <use x="55.712891" xlink:href="#DejaVuSans-69"/>
     <use x="83.496094" xlink:href="#DejaVuSans-73"/>
     <use x="135.595703" xlink:href="#DejaVuSans-62"/>
     <use x="199.072266" xlink:href="#DejaVuSans-6f"/>
     <use x="260.253906" xlink:href="#DejaVuSans-6e"/>
    </g>
   </g>
   <g id="text_19">
    <!-- 4153 -->
    <defs>
     <path d="M 40.578125 39.3125 
Q 47.65625 37.796875 51.625 33 
Q 55.609375 28.21875 55.609375 21.1875 
Q 55.609375 10.40625 48.1875 4.484375 
Q 40.765625 -1.421875 27.09375 -1.421875 
Q 22.515625 -1.421875 17.65625 -0.515625 
Q 12.796875 0.390625 7.625 2.203125 
L 7.625 11.71875 
Q 11.71875 9.328125 16.59375 8.109375 
Q 21.484375 6.890625 26.8125 6.890625 
Q 36.078125 6.890625 40.9375 10.546875 
Q 45.796875 14.203125 45.796875 21.1875 
Q 45.796875 27.640625 41.28125 31.265625 
Q 36.765625 34.90625 28.71875 34.90625 
L 20.21875 34.90625 
L 20.21875 43.015625 
L 29.109375 43.015625 
Q 36.375 43.015625 40.234375 45.921875 
Q 44.09375 48.828125 44.09375 54.296875 
Q 44.09375 59.90625 40.109375 62.90625 
Q 36.140625 65.921875 28.71875 65.921875 
Q 24.65625 65.921875 20.015625 65.03125 
Q 15.375 64.15625 9.8125 62.3125 
L 9.8125 71.09375 
Q 15.4375 72.65625 20.34375 73.4375 
Q 25.25 74.21875 29.59375 74.21875 
Q 40.828125 74.21875 47.359375 69.109375 
Q 53.90625 64.015625 53.90625 55.328125 
Q 53.90625 49.265625 50.4375 45.09375 
Q 46.96875 40.921875 40.578125 39.3125 
z
" id="DejaVuSans-33"/>
    </defs>
    <g transform="translate(611.446313 1160.598638)scale(0.2 -0.2)">
     <use xlink:href="#DejaVuSans-34"/>
     <use x="63.623047" xlink:href="#DejaVuSans-31"/>
     <use x="127.246094" xlink:href="#DejaVuSans-35"/>
     <use x="190.869141" xlink:href="#DejaVuSans-33"/>
    </g>
   </g>
   <g id="text_20">
    <!-- Vienna -->
    <defs>
     <path d="M 28.609375 0 
L 0.78125 72.90625 
L 11.078125 72.90625 
L 34.1875 11.53125 
L 57.328125 72.90625 
L 67.578125 72.90625 
L 39.796875 0 
z
" id="DejaVuSans-56"/>
    </defs>
    <g transform="translate(462.781143 1430.871906)scale(0.2 -0.2)">
     <use xlink:href="#DejaVuSans-56"/>
     <use x="68.376953" xlink:href="#DejaVuSans-69"/>
     <use x="96.160156" xlink:href="#DejaVuSans-65"/>
     <use x="157.683594" xlink:href="#DejaVuSans-6e"/>
     <use x="221.0625" xlink:href="#DejaVuSans-6e"/>
     <use x="284.441406" xlink:href="#DejaVuSans-61"/>
    </g>
   </g>
   <g id="text_21">
    <!-- 3724 -->
    <g transform="translate(669.214521 1210.099758)scale(0.2 -0.2)">
     <use xlink:href="#DejaVuSans-33"/>
     <use x="63.623047" xlink:href="#DejaVuSans-37"/>
     <use x="127.246094" xlink:href="#DejaVuSans-32"/>
     <use x="190.869141" xlink:href="#DejaVuSans-34"/>
    </g>
   </g>
   <g id="text_22">
    <!-- Amsterdam -->
    <defs>
     <path d="M 34.1875 63.1875 
L 20.796875 26.90625 
L 47.609375 26.90625 
z
M 28.609375 72.90625 
L 39.796875 72.90625 
L 67.578125 0 
L 57.328125 0 
L 50.6875 18.703125 
L 17.828125 18.703125 
L 11.1875 0 
L 0.78125 0 
z
" id="DejaVuSans-41"/>
    </defs>
    <g transform="translate(518.790047 1490.229803)scale(0.2 -0.2)">
     <use xlink:href="#DejaVuSans-41"/>
     <use x="68.408203" xlink:href="#DejaVuSans-6d"/>
     <use x="165.820312" xlink:href="#DejaVuSans-73"/>
     <use x="217.919922" xlink:href="#DejaVuSans-74"/>
     <use x="257.128906" xlink:href="#DejaVuSans-65"/>
     <use x="318.652344" xlink:href="#DejaVuSans-72"/>
     <use x="359.75" xlink:href="#DejaVuSans-64"/>
     <use x="423.226562" xlink:href="#DejaVuSans-61"/>
     <use x="484.505859" xlink:href="#DejaVuSans-6d"/>
    </g>
   </g>
   <g id="text_23">
    <!-- 3434 -->
    <g transform="translate(729.44159 1244.725197)scale(0.2 -0.2)">
     <use xlink:href="#DejaVuSans-33"/>
     <use x="63.623047" xlink:href="#DejaVuSans-34"/>
     <use x="127.246094" xlink:href="#DejaVuSans-33"/>
     <use x="190.869141" xlink:href="#DejaVuSans-34"/>
    </g>
   </g>
   <g id="text_24">
    <!-- Hamburg -->
    <defs>
     <path d="M 9.8125 72.90625 
L 19.671875 72.90625 
L 19.671875 43.015625 
L 55.515625 43.015625 
L 55.515625 72.90625 
L 65.375 72.90625 
L 65.375 0 
L 55.515625 0 
L 55.515625 34.71875 
L 19.671875 34.71875 
L 19.671875 0 
L 9.8125 0 
z
" id="DejaVuSans-48"/>
    </defs>
    <g transform="translate(644.982098 1528.100953)scale(0.2 -0.2)">
     <use xlink:href="#DejaVuSans-48"/>
     <use x="75.195312" xlink:href="#DejaVuSans-61"/>
     <use x="136.474609" xlink:href="#DejaVuSans-6d"/>
     <use x="233.886719" xlink:href="#DejaVuSans-62"/>
     <use x="297.363281" xlink:href="#DejaVuSans-75"/>
     <use x="360.742188" xlink:href="#DejaVuSans-72"/>
     <use x="401.839844" xlink:href="#DejaVuSans-67"/>
    </g>
   </g>
   <g id="text_25">
    <!-- 3130 -->
    <g transform="translate(789.452838 1266.816702)scale(0.2 -0.2)">
     <use xlink:href="#DejaVuSans-33"/>
     <use x="63.623047" xlink:href="#DejaVuSans-31"/>
     <use x="127.246094" xlink:href="#DejaVuSans-33"/>
     <use x="190.869141" xlink:href="#DejaVuSans-30"/>
    </g>
   </g>
   <g id="text_26">
    <!-- Munich -->
    <defs>
     <path d="M 54.890625 33.015625 
L 54.890625 0 
L 45.90625 0 
L 45.90625 32.71875 
Q 45.90625 40.484375 42.875 44.328125 
Q 39.84375 48.1875 33.796875 48.1875 
Q 26.515625 48.1875 22.3125 43.546875 
Q 18.109375 38.921875 18.109375 30.90625 
L 18.109375 0 
L 9.078125 0 
L 9.078125 75.984375 
L 18.109375 75.984375 
L 18.109375 46.1875 
Q 21.34375 51.125 25.703125 53.5625 
Q 30.078125 56 35.796875 56 
Q 45.21875 56 50.046875 50.171875 
Q 54.890625 44.34375 54.890625 33.015625 
z
" id="DejaVuSans-68"/>
    </defs>
    <g transform="translate(766.75617 1548.196695)scale(0.2 -0.2)">
     <use xlink:href="#DejaVuSans-4d"/>
     <use x="86.279297" xlink:href="#DejaVuSans-75"/>
     <use x="149.658203" xlink:href="#DejaVuSans-6e"/>
     <use x="213.037109" xlink:href="#DejaVuSans-69"/>
     <use x="240.820312" xlink:href="#DejaVuSans-63"/>
     <use x="295.800781" xlink:href="#DejaVuSans-68"/>
    </g>
   </g>
   <g id="text_27">
    <!-- 2995 -->
    <g transform="translate(848.102818 1278.539218)scale(0.2 -0.2)">
     <use xlink:href="#DejaVuSans-32"/>
     <use x="63.623047" xlink:href="#DejaVuSans-39"/>
     <use x="127.246094" xlink:href="#DejaVuSans-39"/>
     <use x="190.869141" xlink:href="#DejaVuSans-35"/>
    </g>
   </g>
   <g id="text_28">
    <!-- Bruxelles -->
    <defs>
     <path d="M 54.890625 54.6875 
L 35.109375 28.078125 
L 55.90625 0 
L 45.3125 0 
L 29.390625 21.484375 
L 13.484375 0 
L 2.875 0 
L 24.125 28.609375 
L 4.6875 54.6875 
L 15.28125 54.6875 
L 29.78125 35.203125 
L 44.28125 54.6875 
z
" id="DejaVuSans-78"/>
    </defs>
    <g transform="translate(937.986478 1553.164263)scale(0.2 -0.2)">
     <use xlink:href="#DejaVuSans-42"/>
     <use x="68.603516" xlink:href="#DejaVuSans-72"/>
     <use x="109.716797" xlink:href="#DejaVuSans-75"/>
     <use x="173.095703" xlink:href="#DejaVuSans-78"/>
     <use x="232.228516" xlink:href="#DejaVuSans-65"/>
     <use x="293.751953" xlink:href="#DejaVuSans-6c"/>
     <use x="321.535156" xlink:href="#DejaVuSans-6c"/>
     <use x="349.318359" xlink:href="#DejaVuSans-65"/>
     <use x="410.841797" xlink:href="#DejaVuSans-73"/>
    </g>
   </g>
   <g id="text_29">
    <!-- 2945 -->
    <g transform="translate(906.083779 1281.436966)scale(0.2 -0.2)">
     <use xlink:href="#DejaVuSans-32"/>
     <use x="63.623047" xlink:href="#DejaVuSans-39"/>
     <use x="127.246094" xlink:href="#DejaVuSans-34"/>
     <use x="190.869141" xlink:href="#DejaVuSans-35"/>
    </g>
   </g>
   <g id="text_30">
    <!-- Lyon -->
    <g transform="translate(1035.966089 1543.905014)scale(0.2 -0.2)">
     <use xlink:href="#DejaVuSans-4c"/>
     <use x="55.572266" xlink:href="#DejaVuSans-79"/>
     <use x="114.751953" xlink:href="#DejaVuSans-6f"/>
     <use x="175.933594" xlink:href="#DejaVuSans-6e"/>
    </g>
   </g>
   <g id="text_31">
    <!-- 2930 -->
    <g transform="translate(963.238552 1276.035737)scale(0.2 -0.2)">
     <use xlink:href="#DejaVuSans-32"/>
     <use x="63.623047" xlink:href="#DejaVuSans-39"/>
     <use x="127.246094" xlink:href="#DejaVuSans-33"/>
     <use x="190.869141" xlink:href="#DejaVuSans-30"/>
    </g>
   </g>
   <g id="text_32">
    <!-- Stockholm -->
    <defs>
     <path d="M 53.515625 70.515625 
L 53.515625 60.890625 
Q 47.90625 63.578125 42.921875 64.890625 
Q 37.9375 66.21875 33.296875 66.21875 
Q 25.25 66.21875 20.875 63.09375 
Q 16.5 59.96875 16.5 54.203125 
Q 16.5 49.359375 19.40625 46.890625 
Q 22.3125 44.4375 30.421875 42.921875 
L 36.375 41.703125 
Q 47.40625 39.59375 52.65625 34.296875 
Q 57.90625 29 57.90625 20.125 
Q 57.90625 9.515625 50.796875 4.046875 
Q 43.703125 -1.421875 29.984375 -1.421875 
Q 24.8125 -1.421875 18.96875 -0.25 
Q 13.140625 0.921875 6.890625 3.21875 
L 6.890625 13.375 
Q 12.890625 10.015625 18.65625 8.296875 
Q 24.421875 6.59375 29.984375 6.59375 
Q 38.421875 6.59375 43.015625 9.90625 
Q 47.609375 13.234375 47.609375 19.390625 
Q 47.609375 24.75 44.3125 27.78125 
Q 41.015625 30.8125 33.5 32.328125 
L 27.484375 33.5 
Q 16.453125 35.6875 11.515625 40.375 
Q 6.59375 45.0625 6.59375 53.421875 
Q 6.59375 63.09375 13.40625 68.65625 
Q 20.21875 74.21875 32.171875 74.21875 
Q 37.3125 74.21875 42.625 73.28125 
Q 47.953125 72.359375 53.515625 70.515625 
z
" id="DejaVuSans-53"/>
     <path d="M 9.078125 75.984375 
L 18.109375 75.984375 
L 18.109375 31.109375 
L 44.921875 54.6875 
L 56.390625 54.6875 
L 27.390625 29.109375 
L 57.625 0 
L 45.90625 0 
L 18.109375 26.703125 
L 18.109375 0 
L 9.078125 0 
z
" id="DejaVuSans-6b"/>
    </defs>
    <g transform="translate(1127.665727 1521.963928)scale(0.2 -0.2)">
     <use xlink:href="#DejaVuSans-53"/>
     <use x="63.476562" xlink:href="#DejaVuSans-74"/>
     <use x="102.685547" xlink:href="#DejaVuSans-6f"/>
     <use x="163.867188" xlink:href="#DejaVuSans-63"/>
     <use x="218.847656" xlink:href="#DejaVuSans-6b"/>
     <use x="276.757812" xlink:href="#DejaVuSans-68"/>
     <use x="340.136719" xlink:href="#DejaVuSans-6f"/>
     <use x="401.318359" xlink:href="#DejaVuSans-6c"/>
     <use x="429.101562" xlink:href="#DejaVuSans-6d"/>
    </g>
   </g>
   <g id="text_33">
    <!-- 2704 -->
    <g transform="translate(1016.730008 1263.236771)scale(0.2 -0.2)">
     <use xlink:href="#DejaVuSans-32"/>
     <use x="63.623047" xlink:href="#DejaVuSans-37"/>
     <use x="127.246094" xlink:href="#DejaVuSans-30"/>
     <use x="190.869141" xlink:href="#DejaVuSans-34"/>
    </g>
   </g>
   <g id="text_34">
    <!-- Budapest -->
    <defs>
     <path d="M 18.109375 8.203125 
L 18.109375 -20.796875 
L 9.078125 -20.796875 
L 9.078125 54.6875 
L 18.109375 54.6875 
L 18.109375 46.390625 
Q 20.953125 51.265625 25.265625 53.625 
Q 29.59375 56 35.59375 56 
Q 45.5625 56 51.78125 48.09375 
Q 58.015625 40.1875 58.015625 27.296875 
Q 58.015625 14.40625 51.78125 6.484375 
Q 45.5625 -1.421875 35.59375 -1.421875 
Q 29.59375 -1.421875 25.265625 0.953125 
Q 20.953125 3.328125 18.109375 8.203125 
z
M 48.6875 27.296875 
Q 48.6875 37.203125 44.609375 42.84375 
Q 40.53125 48.484375 33.40625 48.484375 
Q 26.265625 48.484375 22.1875 42.84375 
Q 18.109375 37.203125 18.109375 27.296875 
Q 18.109375 17.390625 22.1875 11.75 
Q 26.265625 6.109375 33.40625 6.109375 
Q 40.53125 6.109375 44.609375 11.75 
Q 48.6875 17.390625 48.6875 27.296875 
z
" id="DejaVuSans-70"/>
    </defs>
    <g transform="translate(1210.389129 1489.970124)scale(0.2 -0.2)">
     <use xlink:href="#DejaVuSans-42"/>
     <use x="68.603516" xlink:href="#DejaVuSans-75"/>
     <use x="131.982422" xlink:href="#DejaVuSans-64"/>
     <use x="195.458984" xlink:href="#DejaVuSans-61"/>
     <use x="256.738281" xlink:href="#DejaVuSans-70"/>
     <use x="320.214844" xlink:href="#DejaVuSans-65"/>
     <use x="381.738281" xlink:href="#DejaVuSans-73"/>
     <use x="433.837891" xlink:href="#DejaVuSans-74"/>
    </g>
   </g>
   <g id="text_35">
    <!-- 2605 -->
    <g transform="translate(1064.985325 1244.573718)scale(0.2 -0.2)">
     <use xlink:href="#DejaVuSans-32"/>
     <use x="63.623047" xlink:href="#DejaVuSans-36"/>
     <use x="127.246094" xlink:href="#DejaVuSans-30"/>
     <use x="190.869141" xlink:href="#DejaVuSans-35"/>
    </g>
   </g>
   <g id="text_36">
    <!-- Warsaw -->
    <defs>
     <path d="M 3.328125 72.90625 
L 13.28125 72.90625 
L 28.609375 11.28125 
L 43.890625 72.90625 
L 54.984375 72.90625 
L 70.3125 11.28125 
L 85.59375 72.90625 
L 95.609375 72.90625 
L 77.296875 0 
L 64.890625 0 
L 49.515625 63.28125 
L 33.984375 0 
L 21.578125 0 
z
" id="DejaVuSans-57"/>
     <path d="M 4.203125 54.6875 
L 13.1875 54.6875 
L 24.421875 12.015625 
L 35.59375 54.6875 
L 46.1875 54.6875 
L 57.421875 12.015625 
L 68.609375 54.6875 
L 77.59375 54.6875 
L 63.28125 0 
L 52.6875 0 
L 40.921875 44.828125 
L 29.109375 0 
L 18.5 0 
z
" id="DejaVuSans-77"/>
    </defs>
    <g transform="translate(1283.051676 1450.697606)scale(0.2 -0.2)">
     <use xlink:href="#DejaVuSans-57"/>
     <use x="98.783203" xlink:href="#DejaVuSans-61"/>
     <use x="160.0625" xlink:href="#DejaVuSans-72"/>
     <use x="201.175781" xlink:href="#DejaVuSans-73"/>
     <use x="253.275391" xlink:href="#DejaVuSans-61"/>
     <use x="314.554688" xlink:href="#DejaVuSans-77"/>
    </g>
   </g>
   <g id="text_37">
    <!-- 2351 -->
    <g transform="translate(1107.371811 1221.66475)scale(0.2 -0.2)">
     <use xlink:href="#DejaVuSans-32"/>
     <use x="63.623047" xlink:href="#DejaVuSans-33"/>
     <use x="127.246094" xlink:href="#DejaVuSans-35"/>
     <use x="190.869141" xlink:href="#DejaVuSans-31"/>
    </g>
   </g>
   <g id="text_38">
    <!-- Copenhagen -->
    <g transform="translate(1343.715028 1408.106902)scale(0.2 -0.2)">
     <use xlink:href="#DejaVuSans-43"/>
     <use x="69.824219" xlink:href="#DejaVuSans-6f"/>
     <use x="131.005859" xlink:href="#DejaVuSans-70"/>
     <use x="194.482422" xlink:href="#DejaVuSans-65"/>
     <use x="256.005859" xlink:href="#DejaVuSans-6e"/>
     <use x="319.384766" xlink:href="#DejaVuSans-68"/>
     <use x="382.763672" xlink:href="#DejaVuSans-61"/>
     <use x="444.042969" xlink:href="#DejaVuSans-67"/>
     <use x="507.519531" xlink:href="#DejaVuSans-65"/>
     <use x="569.042969" xlink:href="#DejaVuSans-6e"/>
    </g>
   </g>
   <g id="text_39">
    <!-- 2108 -->
    <g transform="translate(1142.758767 1196.820172)scale(0.2 -0.2)">
     <use xlink:href="#DejaVuSans-32"/>
     <use x="63.623047" xlink:href="#DejaVuSans-31"/>
     <use x="127.246094" xlink:href="#DejaVuSans-30"/>
     <use x="190.869141" xlink:href="#DejaVuSans-38"/>
    </g>
   </g>
   <g id="text_40">
    <!-- Dublin -->
    <defs>
     <path d="M 19.671875 64.796875 
L 19.671875 8.109375 
L 31.59375 8.109375 
Q 46.6875 8.109375 53.6875 14.9375 
Q 60.6875 21.78125 60.6875 36.53125 
Q 60.6875 51.171875 53.6875 57.984375 
Q 46.6875 64.796875 31.59375 64.796875 
z
M 9.8125 72.90625 
L 30.078125 72.90625 
Q 51.265625 72.90625 61.171875 64.09375 
Q 71.09375 55.28125 71.09375 36.53125 
Q 71.09375 17.671875 61.125 8.828125 
Q 51.171875 0 30.078125 0 
L 9.8125 0 
z
" id="DejaVuSans-44"/>
    </defs>
    <g transform="translate(1395.934249 1362.321946)scale(0.2 -0.2)">
     <use xlink:href="#DejaVuSans-44"/>
     <use x="77.001953" xlink:href="#DejaVuSans-75"/>
     <use x="140.380859" xlink:href="#DejaVuSans-62"/>
     <use x="203.857422" xlink:href="#DejaVuSans-6c"/>
     <use x="231.640625" xlink:href="#DejaVuSans-69"/>
     <use x="259.423828" xlink:href="#DejaVuSans-6e"/>
    </g>
   </g>
   <g id="text_41">
    <!-- 2081 -->
    <g transform="translate(1173.219979 1170.112281)scale(0.2 -0.2)">
     <use xlink:href="#DejaVuSans-32"/>
     <use x="63.623047" xlink:href="#DejaVuSans-30"/>
     <use x="127.246094" xlink:href="#DejaVuSans-38"/>
     <use x="190.869141" xlink:href="#DejaVuSans-31"/>
    </g>
   </g>
   <g id="text_42">
    <!-- Athens -->
    <g transform="translate(1441.132663 1313.626603)scale(0.2 -0.2)">
     <use xlink:href="#DejaVuSans-41"/>
     <use x="68.392578" xlink:href="#DejaVuSans-74"/>
     <use x="107.601562" xlink:href="#DejaVuSans-68"/>
     <use x="170.980469" xlink:href="#DejaVuSans-65"/>
     <use x="232.503906" xlink:href="#DejaVuSans-6e"/>
     <use x="295.882812" xlink:href="#DejaVuSans-73"/>
    </g>
   </g>
   <g id="text_43">
    <!-- 1937 -->
    <g transform="translate(1199.58572 1141.706664)scale(0.2 -0.2)">
     <use xlink:href="#DejaVuSans-31"/>
     <use x="63.623047" xlink:href="#DejaVuSans-39"/>
     <use x="127.246094" xlink:href="#DejaVuSans-33"/>
     <use x="190.869141" xlink:href="#DejaVuSans-37"/>
    </g>
   </g>
   <g id="text_44">
    <!-- Edinburgh -->
    <defs>
     <path d="M 9.8125 72.90625 
L 55.90625 72.90625 
L 55.90625 64.59375 
L 19.671875 64.59375 
L 19.671875 43.015625 
L 54.390625 43.015625 
L 54.390625 34.71875 
L 19.671875 34.71875 
L 19.671875 8.296875 
L 56.78125 8.296875 
L 56.78125 0 
L 9.8125 0 
z
" id="DejaVuSans-45"/>
    </defs>
    <g transform="translate(1479.062738 1263.70419)scale(0.2 -0.2)">
     <use xlink:href="#DejaVuSans-45"/>
     <use x="63.183594" xlink:href="#DejaVuSans-64"/>
     <use x="126.660156" xlink:href="#DejaVuSans-69"/>
     <use x="154.443359" xlink:href="#DejaVuSans-6e"/>
     <use x="217.822266" xlink:href="#DejaVuSans-62"/>
     <use x="281.298828" xlink:href="#DejaVuSans-75"/>
     <use x="344.677734" xlink:href="#DejaVuSans-72"/>
     <use x="385.775391" xlink:href="#DejaVuSans-67"/>
     <use x="449.251953" xlink:href="#DejaVuSans-68"/>
    </g>
   </g>
   <g id="text_45">
    <!-- 1865 -->
    <g transform="translate(1221.711597 1112.585257)scale(0.2 -0.2)">
     <use xlink:href="#DejaVuSans-31"/>
     <use x="63.623047" xlink:href="#DejaVuSans-38"/>
     <use x="127.246094" xlink:href="#DejaVuSans-36"/>
     <use x="190.869141" xlink:href="#DejaVuSans-35"/>
    </g>
   </g>
   <g id="text_46">
    <!-- Zurich -->
    <defs>
     <path d="M 5.609375 72.90625 
L 62.890625 72.90625 
L 62.890625 65.375 
L 16.796875 8.296875 
L 64.015625 8.296875 
L 64.015625 0 
L 4.5 0 
L 4.5 7.515625 
L 50.59375 64.59375 
L 5.609375 64.59375 
z
" id="DejaVuSans-5a"/>
    </defs>
    <g transform="translate(1509.777438 1214.38423)scale(0.2 -0.2)">
     <use xlink:href="#DejaVuSans-5a"/>
     <use x="68.505859" xlink:href="#DejaVuSans-75"/>
     <use x="131.884766" xlink:href="#DejaVuSans-72"/>
     <use x="172.998047" xlink:href="#DejaVuSans-69"/>
     <use x="200.78125" xlink:href="#DejaVuSans-63"/>
     <use x="255.761719" xlink:href="#DejaVuSans-68"/>
    </g>
   </g>
   <g id="text_47">
    <!-- 1667 -->
    <g transform="translate(1239.628505 1083.81528)scale(0.2 -0.2)">
     <use xlink:href="#DejaVuSans-31"/>
     <use x="63.623047" xlink:href="#DejaVuSans-36"/>
     <use x="127.246094" xlink:href="#DejaVuSans-36"/>
     <use x="190.869141" xlink:href="#DejaVuSans-37"/>
    </g>
   </g>
   <g id="text_48">
    <!-- Oporto -->
    <defs>
     <path d="M 39.40625 66.21875 
Q 28.65625 66.21875 22.328125 58.203125 
Q 16.015625 50.203125 16.015625 36.375 
Q 16.015625 22.609375 22.328125 14.59375 
Q 28.65625 6.59375 39.40625 6.59375 
Q 50.140625 6.59375 56.421875 14.59375 
Q 62.703125 22.609375 62.703125 36.375 
Q 62.703125 50.203125 56.421875 58.203125 
Q 50.140625 66.21875 39.40625 66.21875 
z
M 39.40625 74.21875 
Q 54.734375 74.21875 63.90625 63.9375 
Q 73.09375 53.65625 73.09375 36.375 
Q 73.09375 19.140625 63.90625 8.859375 
Q 54.734375 -1.421875 39.40625 -1.421875 
Q 24.03125 -1.421875 14.8125 8.828125 
Q 5.609375 19.09375 5.609375 36.375 
Q 5.609375 53.65625 14.8125 63.9375 
Q 24.03125 74.21875 39.40625 74.21875 
z
" id="DejaVuSans-4f"/>
    </defs>
    <g transform="translate(1533.93279 1166.947007)scale(0.2 -0.2)">
     <use xlink:href="#DejaVuSans-4f"/>
     <use x="78.710938" xlink:href="#DejaVuSans-70"/>
     <use x="142.1875" xlink:href="#DejaVuSans-6f"/>
     <use x="203.369141" xlink:href="#DejaVuSans-72"/>
     <use x="244.482422" xlink:href="#DejaVuSans-74"/>
     <use x="283.691406" xlink:href="#DejaVuSans-6f"/>
    </g>
   </g>
   <g id="text_49">
    <!-- 1575 -->
    <g transform="translate(1253.719128 1056.143567)scale(0.2 -0.2)">
     <use xlink:href="#DejaVuSans-31"/>
     <use x="63.623047" xlink:href="#DejaVuSans-35"/>
     <use x="127.246094" xlink:href="#DejaVuSans-37"/>
     <use x="190.869141" xlink:href="#DejaVuSans-35"/>
    </g>
   </g>
   <g id="text_50">
    <!-- Geneva -->
    <defs>
     <path d="M 59.515625 10.40625 
L 59.515625 29.984375 
L 43.40625 29.984375 
L 43.40625 38.09375 
L 69.28125 38.09375 
L 69.28125 6.78125 
Q 63.578125 2.734375 56.6875 0.65625 
Q 49.8125 -1.421875 42 -1.421875 
Q 24.90625 -1.421875 15.25 8.5625 
Q 5.609375 18.5625 5.609375 36.375 
Q 5.609375 54.25 15.25 64.234375 
Q 24.90625 74.21875 42 74.21875 
Q 49.125 74.21875 55.546875 72.453125 
Q 61.96875 70.703125 67.390625 67.28125 
L 67.390625 56.78125 
Q 61.921875 61.421875 55.765625 63.765625 
Q 49.609375 66.109375 42.828125 66.109375 
Q 29.4375 66.109375 22.71875 58.640625 
Q 16.015625 51.171875 16.015625 36.375 
Q 16.015625 21.625 22.71875 14.15625 
Q 29.4375 6.6875 42.828125 6.6875 
Q 48.046875 6.6875 52.140625 7.59375 
Q 56.25 8.5 59.515625 10.40625 
z
" id="DejaVuSans-47"/>
     <path d="M 2.984375 54.6875 
L 12.5 54.6875 
L 29.59375 8.796875 
L 46.6875 54.6875 
L 56.203125 54.6875 
L 35.6875 0 
L 23.484375 0 
z
" id="DejaVuSans-76"/>
    </defs>
    <g transform="translate(1553.527855 1119.220723)scale(0.2 -0.2)">
     <use xlink:href="#DejaVuSans-47"/>
     <use x="77.490234" xlink:href="#DejaVuSans-65"/>
     <use x="139.013672" xlink:href="#DejaVuSans-6e"/>
     <use x="202.392578" xlink:href="#DejaVuSans-65"/>
     <use x="263.916016" xlink:href="#DejaVuSans-76"/>
     <use x="323.095703" xlink:href="#DejaVuSans-61"/>
    </g>
   </g>
   <g id="text_51">
    <!-- 1572 -->
    <g transform="translate(1265.149582 1028.303234)scale(0.2 -0.2)">
     <use xlink:href="#DejaVuSans-31"/>
     <use x="63.623047" xlink:href="#DejaVuSans-35"/>
     <use x="127.246094" xlink:href="#DejaVuSans-37"/>
     <use x="190.869141" xlink:href="#DejaVuSans-32"/>
    </g>
   </g>
   <g id="text_52">
    <!-- Krakow -->
    <defs>
     <path d="M 9.8125 72.90625 
L 19.671875 72.90625 
L 19.671875 42.09375 
L 52.390625 72.90625 
L 65.09375 72.90625 
L 28.90625 38.921875 
L 67.671875 0 
L 54.6875 0 
L 19.671875 35.109375 
L 19.671875 0 
L 9.8125 0 
z
" id="DejaVuSans-4b"/>
    </defs>
    <g transform="translate(1568.233848 1073.624179)scale(0.2 -0.2)">
     <use xlink:href="#DejaVuSans-4b"/>
     <use x="65.576172" xlink:href="#DejaVuSans-72"/>
     <use x="106.689453" xlink:href="#DejaVuSans-61"/>
     <use x="167.96875" xlink:href="#DejaVuSans-6b"/>
     <use x="225.832031" xlink:href="#DejaVuSans-6f"/>
     <use x="287.013672" xlink:href="#DejaVuSans-77"/>
    </g>
   </g>
   <g id="text_53">
    <!-- 1354 -->
    <g transform="translate(1273.728078 1001.70525)scale(0.2 -0.2)">
     <use xlink:href="#DejaVuSans-31"/>
     <use x="63.623047" xlink:href="#DejaVuSans-33"/>
     <use x="127.246094" xlink:href="#DejaVuSans-35"/>
     <use x="190.869141" xlink:href="#DejaVuSans-34"/>
    </g>
   </g>
   <g id="text_54">
    <!-- Helsinki -->
    <g transform="translate(1578.33395 1032.610592)scale(0.2 -0.2)">
     <use xlink:href="#DejaVuSans-48"/>
     <use x="75.195312" xlink:href="#DejaVuSans-65"/>
     <use x="136.71875" xlink:href="#DejaVuSans-6c"/>
     <use x="164.501953" xlink:href="#DejaVuSans-73"/>
     <use x="216.601562" xlink:href="#DejaVuSans-69"/>
     <use x="244.384766" xlink:href="#DejaVuSans-6e"/>
     <use x="307.763672" xlink:href="#DejaVuSans-6b"/>
     <use x="365.673828" xlink:href="#DejaVuSans-69"/>
    </g>
   </g>
   <g id="text_55">
    <!-- 1227 -->
    <g transform="translate(1279.619804 977.780658)scale(0.2 -0.2)">
     <use xlink:href="#DejaVuSans-31"/>
     <use x="63.623047" xlink:href="#DejaVuSans-32"/>
     <use x="127.246094" xlink:href="#DejaVuSans-32"/>
     <use x="190.869141" xlink:href="#DejaVuSans-37"/>
    </g>
   </g>
   <g id="text_56">
    <!-- Oslo -->
    <g transform="translate(1585.361792 993.327922)scale(0.2 -0.2)">
     <use xlink:href="#DejaVuSans-4f"/>
     <use x="78.710938" xlink:href="#DejaVuSans-73"/>
     <use x="130.810547" xlink:href="#DejaVuSans-6c"/>
     <use x="158.59375" xlink:href="#DejaVuSans-6f"/>
    </g>
   </g>
   <g id="text_57">
    <!-- 1213 -->
    <g transform="translate(1283.719378 954.865767)scale(0.2 -0.2)">
     <use xlink:href="#DejaVuSans-31"/>
     <use x="63.623047" xlink:href="#DejaVuSans-32"/>
     <use x="127.246094" xlink:href="#DejaVuSans-31"/>
     <use x="190.869141" xlink:href="#DejaVuSans-33"/>
    </g>
   </g>
   <g id="text_58">
    <!-- Bratislava -->
    <g transform="translate(1589.693562 956.272879)scale(0.2 -0.2)">
     <use xlink:href="#DejaVuSans-42"/>
     <use x="68.603516" xlink:href="#DejaVuSans-72"/>
     <use x="109.716797" xlink:href="#DejaVuSans-61"/>
     <use x="170.996094" xlink:href="#DejaVuSans-74"/>
     <use x="210.205078" xlink:href="#DejaVuSans-69"/>
     <use x="237.988281" xlink:href="#DejaVuSans-73"/>
     <use x="290.087891" xlink:href="#DejaVuSans-6c"/>
     <use x="317.871094" xlink:href="#DejaVuSans-61"/>
     <use x="379.150391" xlink:href="#DejaVuSans-76"/>
     <use x="438.330078" xlink:href="#DejaVuSans-61"/>
    </g>
   </g>
   <g id="text_59">
    <!-- 1070 -->
    <g transform="translate(1286.246245 933.250326)scale(0.2 -0.2)">
     <use xlink:href="#DejaVuSans-31"/>
     <use x="63.623047" xlink:href="#DejaVuSans-30"/>
     <use x="127.246094" xlink:href="#DejaVuSans-37"/>
     <use x="190.869141" xlink:href="#DejaVuSans-30"/>
    </g>
   </g>
   <g id="text_60">
    <!-- Luxembourg -->
    <g transform="translate(1591.522049 928.11565)scale(0.2 -0.2)">
     <use xlink:href="#DejaVuSans-4c"/>
     <use x="55.697266" xlink:href="#DejaVuSans-75"/>
     <use x="119.076172" xlink:href="#DejaVuSans-78"/>
     <use x="178.208984" xlink:href="#DejaVuSans-65"/>
     <use x="239.732422" xlink:href="#DejaVuSans-6d"/>
     <use x="337.144531" xlink:href="#DejaVuSans-62"/>
     <use x="400.621094" xlink:href="#DejaVuSans-6f"/>
     <use x="461.802734" xlink:href="#DejaVuSans-75"/>
     <use x="525.181641" xlink:href="#DejaVuSans-72"/>
     <use x="566.279297" xlink:href="#DejaVuSans-67"/>
    </g>
   </g>
   <g id="text_61">
    <!-- 656 -->
    <g transform="translate(1293.675362 916.825275)scale(0.2 -0.2)">
     <use xlink:href="#DejaVuSans-36"/>
     <use x="63.623047" xlink:href="#DejaVuSans-35"/>
     <use x="127.246094" xlink:href="#DejaVuSans-36"/>
    </g>
   </g>
   <g id="text_62">
    <!-- Ljubljana -->
    <defs>
     <path d="M 9.421875 54.6875 
L 18.40625 54.6875 
L 18.40625 -0.984375 
Q 18.40625 -11.421875 14.421875 -16.109375 
Q 10.453125 -20.796875 1.609375 -20.796875 
L -1.8125 -20.796875 
L -1.8125 -13.1875 
L 0.59375 -13.1875 
Q 5.71875 -13.1875 7.5625 -10.8125 
Q 9.421875 -8.453125 9.421875 -0.984375 
z
M 9.421875 75.984375 
L 18.40625 75.984375 
L 18.40625 64.59375 
L 9.421875 64.59375 
z
" id="DejaVuSans-6a"/>
    </defs>
    <g transform="translate(1592.047286 909.203836)scale(0.2 -0.2)">
     <use xlink:href="#DejaVuSans-4c"/>
     <use x="55.712891" xlink:href="#DejaVuSans-6a"/>
     <use x="83.496094" xlink:href="#DejaVuSans-75"/>
     <use x="146.875" xlink:href="#DejaVuSans-62"/>
     <use x="210.351562" xlink:href="#DejaVuSans-6c"/>
     <use x="238.134766" xlink:href="#DejaVuSans-6a"/>
     <use x="265.917969" xlink:href="#DejaVuSans-61"/>
     <use x="327.197266" xlink:href="#DejaVuSans-6e"/>
     <use x="390.576172" xlink:href="#DejaVuSans-61"/>
    </g>
   </g>
   <g id="text_63">
    <!-- 500 -->
    <g transform="translate(1293.98175 905.793383)scale(0.2 -0.2)">
     <use xlink:href="#DejaVuSans-35"/>
     <use x="63.623047" xlink:href="#DejaVuSans-30"/>
     <use x="127.246094" xlink:href="#DejaVuSans-30"/>
    </g>
   </g>
   <g id="text_64">
    <!-- Repartition by cities of number of restaurants (TA) -->
    <defs>
     <path id="DejaVuSans-20"/>
     <path d="M 37.109375 75.984375 
L 37.109375 68.5 
L 28.515625 68.5 
Q 23.6875 68.5 21.796875 66.546875 
Q 19.921875 64.59375 19.921875 59.515625 
L 19.921875 54.6875 
L 34.71875 54.6875 
L 34.71875 47.703125 
L 19.921875 47.703125 
L 19.921875 0 
L 10.890625 0 
L 10.890625 47.703125 
L 2.296875 47.703125 
L 2.296875 54.6875 
L 10.890625 54.6875 
L 10.890625 58.5 
Q 10.890625 67.625 15.140625 71.796875 
Q 19.390625 75.984375 28.609375 75.984375 
z
" id="DejaVuSans-66"/>
     <path d="M 31 75.875 
Q 24.46875 64.65625 21.28125 53.65625 
Q 18.109375 42.671875 18.109375 31.390625 
Q 18.109375 20.125 21.3125 9.0625 
Q 24.515625 -2 31 -13.1875 
L 23.1875 -13.1875 
Q 15.875 -1.703125 12.234375 9.375 
Q 8.59375 20.453125 8.59375 31.390625 
Q 8.59375 42.28125 12.203125 53.3125 
Q 15.828125 64.359375 23.1875 75.875 
z
" id="DejaVuSans-28"/>
     <path d="M -0.296875 72.90625 
L 61.375 72.90625 
L 61.375 64.59375 
L 35.5 64.59375 
L 35.5 0 
L 25.59375 0 
L 25.59375 64.59375 
L -0.296875 64.59375 
z
" id="DejaVuSans-54"/>
     <path d="M 8.015625 75.875 
L 15.828125 75.875 
Q 23.140625 64.359375 26.78125 53.3125 
Q 30.421875 42.28125 30.421875 31.390625 
Q 30.421875 20.453125 26.78125 9.375 
Q 23.140625 -1.703125 15.828125 -13.1875 
L 8.015625 -13.1875 
Q 14.5 -2 17.703125 9.0625 
Q 20.90625 20.125 20.90625 31.390625 
Q 20.90625 42.671875 17.703125 53.65625 
Q 14.5 64.65625 8.015625 75.875 
z
" id="DejaVuSans-29"/>
    </defs>
    <g transform="translate(770.701875 210)scale(0.12 -0.12)">
     <use xlink:href="#DejaVuSans-52"/>
     <use x="69.419922" xlink:href="#DejaVuSans-65"/>
     <use x="130.943359" xlink:href="#DejaVuSans-70"/>
     <use x="194.419922" xlink:href="#DejaVuSans-61"/>
     <use x="255.699219" xlink:href="#DejaVuSans-72"/>
     <use x="296.8125" xlink:href="#DejaVuSans-74"/>
     <use x="336.021484" xlink:href="#DejaVuSans-69"/>
     <use x="363.804688" xlink:href="#DejaVuSans-74"/>
     <use x="403.013672" xlink:href="#DejaVuSans-69"/>
     <use x="430.796875" xlink:href="#DejaVuSans-6f"/>
     <use x="491.978516" xlink:href="#DejaVuSans-6e"/>
     <use x="555.357422" xlink:href="#DejaVuSans-20"/>
     <use x="587.144531" xlink:href="#DejaVuSans-62"/>
     <use x="650.621094" xlink:href="#DejaVuSans-79"/>
     <use x="709.800781" xlink:href="#DejaVuSans-20"/>
     <use x="741.587891" xlink:href="#DejaVuSans-63"/>
     <use x="796.568359" xlink:href="#DejaVuSans-69"/>
     <use x="824.351562" xlink:href="#DejaVuSans-74"/>
     <use x="863.560547" xlink:href="#DejaVuSans-69"/>
     <use x="891.34375" xlink:href="#DejaVuSans-65"/>
     <use x="952.867188" xlink:href="#DejaVuSans-73"/>
     <use x="1004.966797" xlink:href="#DejaVuSans-20"/>
     <use x="1036.753906" xlink:href="#DejaVuSans-6f"/>
     <use x="1097.935547" xlink:href="#DejaVuSans-66"/>
     <use x="1133.140625" xlink:href="#DejaVuSans-20"/>
     <use x="1164.927734" xlink:href="#DejaVuSans-6e"/>
     <use x="1228.306641" xlink:href="#DejaVuSans-75"/>
     <use x="1291.685547" xlink:href="#DejaVuSans-6d"/>
     <use x="1389.097656" xlink:href="#DejaVuSans-62"/>
     <use x="1452.574219" xlink:href="#DejaVuSans-65"/>
     <use x="1514.097656" xlink:href="#DejaVuSans-72"/>
     <use x="1555.210938" xlink:href="#DejaVuSans-20"/>
     <use x="1586.998047" xlink:href="#DejaVuSans-6f"/>
     <use x="1648.179688" xlink:href="#DejaVuSans-66"/>
     <use x="1683.384766" xlink:href="#DejaVuSans-20"/>
     <use x="1715.171875" xlink:href="#DejaVuSans-72"/>
     <use x="1756.253906" xlink:href="#DejaVuSans-65"/>
     <use x="1817.777344" xlink:href="#DejaVuSans-73"/>
     <use x="1869.876953" xlink:href="#DejaVuSans-74"/>
     <use x="1909.085938" xlink:href="#DejaVuSans-61"/>
     <use x="1970.365234" xlink:href="#DejaVuSans-75"/>
     <use x="2033.744141" xlink:href="#DejaVuSans-72"/>
     <use x="2074.857422" xlink:href="#DejaVuSans-61"/>
     <use x="2136.136719" xlink:href="#DejaVuSans-6e"/>
     <use x="2199.515625" xlink:href="#DejaVuSans-74"/>
     <use x="2238.724609" xlink:href="#DejaVuSans-73"/>
     <use x="2290.824219" xlink:href="#DejaVuSans-20"/>
     <use x="2322.611328" xlink:href="#DejaVuSans-28"/>
     <use x="2361.625" xlink:href="#DejaVuSans-54"/>
     <use x="2422.599609" xlink:href="#DejaVuSans-41"/>
     <use x="2491.007812" xlink:href="#DejaVuSans-29"/>
    </g>
   </g>
  </g>
 </g>
</svg>
